<?xml version="1.0" standalone="no"?>
<!DOCTYPE svg PUBLIC "-//W3C//DTD SVG 1.1//EN" "http://www.w3.org/Graphics/SVG/1.1/DTD/svg11.dtd" >
<svg xmlns="http://www.w3.org/2000/svg">
<metadata></metadata>
<defs>
<font id="franklingothicbookcondBkcondc" horiz-adv-x="1083" >
<font-face units-per-em="2048" ascent="1649" descent="-399" />
<missing-glyph horiz-adv-x="477" />
<glyph horiz-adv-x="2048" />
<glyph horiz-adv-x="2048" />
<glyph unicode="&#xd;" horiz-adv-x="681" />
<glyph unicode=" "  horiz-adv-x="477" />
<glyph unicode="&#x09;" horiz-adv-x="477" />
<glyph unicode="&#xa0;" horiz-adv-x="477" />
<glyph unicode="!" horiz-adv-x="727" d="M256 1405h215l-57 -1059h-101zM268 0v215h193v-215h-193z" />
<glyph unicode="&#x22;" horiz-adv-x="1091" d="M315 1405h174l-30 -545h-113zM602 1405h174l-31 -545h-112z" />
<glyph unicode="#" horiz-adv-x="1081" d="M20 442l25 121h215l55 311h-215l23 121h215l74 410h127l-74 -410h252l76 410h127l-76 -410h217l-23 -121h-215l-55 -311h215l-25 -121h-215l-77 -442h-127l77 442h-254l-77 -442h-127l78 442h-216zM387 563h254l55 311h-254z" />
<glyph unicode="$" horiz-adv-x="1081" d="M115 360l135 64q35 -113 92 -172q66 -66 152 -78v485q-106 31 -181 84q-139 104 -139 277q0 213 160 309q72 45 160 51v140h116v-140q137 -8 228 -86q80 -72 110 -182l-123 -53q-37 88 -71 129q-57 61 -144 67v-454q150 -37 224 -90q133 -98 133 -277q0 -229 -160 -330 q-76 -49 -197 -63v-182h-116v182q-137 14 -234 90q-102 84 -145 229zM315 1047q0 -106 70 -166q48 -40 109 -56v430q-70 -18 -115 -57q-63 -55 -64 -151zM610 172q80 4 135 51q78 68 78 176q0 111 -69 174q-52 50 -144 64v-465z" />
<glyph unicode="%" horiz-adv-x="1583" d="M68 983q0 266 110 371q76 69 182.5 69t182.5 -71q111 -104 110 -369q0 -260 -110 -367q-72 -70 -183 -69q-113 0 -182 69q-111 111 -110 367zM203 983q0 -152 33 -240q37 -98 124 -98q86 0 127 98q33 76 33 240q0 172 -33 242q-41 98 -127 98t-124 -98q-33 -84 -33 -242z M377 0l704 1405h123l-702 -1405h-125zM930 420q0 266 110 371q76 69 182.5 69t182.5 -72q111 -104 111 -368q0 -260 -111 -367q-72 -70 -182 -69q-113 0 -183 69q-111 111 -110 367zM1065 420q0 -152 33 -240q37 -98 125 -98q86 0 127 98q33 76 32 240q0 172 -32 242 q-41 98 -127 98t-125 -98q-33 -84 -33 -242z" />
<glyph unicode="&#x26;" horiz-adv-x="1298" d="M147 385q0 172 121 297q63 68 176 127q-59 106 -86.5 178t-27.5 152q0 129 94 217q82 78 211 78q121 0 194 -74q78 -78 78 -203q0 -141 -94 -252q-70 -82 -174 -139l279 -416q57 94 92 209q23 74 43 209l129 -35q-31 -172 -74 -291q-45 -125 -113 -211q72 -111 156 -110 q25 0 74 14v-135q-68 -23 -113 -23q-70 0 -119 36t-98 108q-154 -150 -332 -150q-182 0 -299 117t-117 297zM315 381q0 -137 82 -215q72 -66 172 -66q145 0 256 131l-311 471q-80 -47 -129 -108q-70 -88 -70 -213zM475 1141q0 -74 47 -180q18 -46 49 -95q78 47 123 101 q68 84 68 176q0 74 -33 119q-39 51 -102 51q-61 0 -105 -45q-47 -49 -47 -127z" />
<glyph unicode="'" horiz-adv-x="729" d="M279 1405h172l-31 -545h-111z" />
<glyph unicode="(" horiz-adv-x="649" d="M115 526q0 276 118 551q80 185 191 328h123q-100 -150 -172 -361q-90 -264 -90 -518t90 -516q72 -207 172 -362h-123q-115 156 -191 327q-119 272 -118 551z" />
<glyph unicode=")" horiz-adv-x="651" d="M102 -352q102 152 174 362q90 264 91 516q0 250 -91 518q-76 221 -174 361h125q119 -158 193 -328q117 -272 117 -551q0 -283 -117 -551q-68 -155 -193 -327h-125z" />
<glyph unicode="*" d="M188 918l252 114l-252 115l62 125l244 -162l-21 295h137l-20 -295l244 162l61 -125l-252 -115l252 -114l-61 -127l-244 161l20 -295h-137l21 295l-244 -161z" />
<glyph unicode="+" d="M111 639v127h362v369h135v-369h365v-127h-365v-369h-135v369h-362z" />
<glyph unicode="," horiz-adv-x="507" d="M139 -268l125 268h-86v227h191v-227l-138 -268h-92z" />
<glyph unicode="-" horiz-adv-x="614" d="M74 459v127h467v-127h-467z" />
<glyph unicode="." horiz-adv-x="507" d="M158 0v227h192v-227h-192z" />
<glyph unicode="/" horiz-adv-x="935" d="M-16 -352l710 1757h131l-708 -1757h-133z" />
<glyph unicode="0" d="M92 702q0 449 172 619q117 113 277 113q166 0 278 -113q172 -170 172 -619q0 -444 -172 -616q-115 -115 -278 -115q-162 0 -277 115q-172 172 -172 616zM262 702q0 -264 57 -415q72 -186 222 -187q61 0 122.5 44t100.5 143q55 135 55 415q0 272 -55 416q-73 187 -223 187 q-147 0 -222 -187q-57 -150 -57 -416z" />
<glyph unicode="1" horiz-adv-x="1085" d="M268 979v170q98 51 174 125q82 77 131 149h119v-1296h223v-127h-634v127h239v1061q-53 -70 -123 -123q-63 -49 -129 -86z" />
<glyph unicode="2" horiz-adv-x="1085" d="M80 0v141q395 338 555 549q125 166 125 324q0 123 -74 203q-68 74 -186 73q-86 0 -146 -43q-96 -68 -125 -256l-149 33q25 176 141.5 293t302.5 117q141 0 242 -72q166 -119 166 -342q0 -205 -160 -404q-82 -100 -226.5 -237t-273.5 -236h658v-143h-850z" />
<glyph unicode="3" horiz-adv-x="1079" d="M49 315l139 50q29 -111 91 -177q86 -90 213 -90q135 0 210 86q70 78 70 213q0 113 -57 181q-43 53 -109.5 70.5t-171.5 17.5h-92v127h92q186 0 254 84q49 61 49 170q0 113 -61 182q-66 78 -180 78q-111 0 -181 -70q-61 -61 -88 -170l-135 43q29 133 113 213 q113 111 315 111q143 0 244 -72q145 -106 145 -315q0 -117 -63.5 -195t-165.5 -111q92 -14 162 -75q115 -96 114 -275q0 -186 -114 -297q-123 -123 -344 -123q-236 0 -361 150q-66 78 -88 194z" />
<glyph unicode="4" horiz-adv-x="1077" d="M74 340v113l528 981h213v-969h189v-125h-189v-340h-160v340h-581zM229 467h426v833z" />
<glyph unicode="5" d="M104 303l148 53q23 -90 78 -155q76 -86 196 -86q131 0 205 82q80 88 80 288q0 154 -63 234q-70 86 -197 86q-115 0 -184 -60q-51 -41 -91 -129l-120 29l39 760h712l-14 -148h-563l-25 -446q49 63 113 98q70 39 168 39q141 0 239 -82q154 -129 154 -387q0 -283 -170 -416 q-115 -92 -287 -92q-186 0 -293 107q-90 82 -125 225z" />
<glyph unicode="6" horiz-adv-x="1081" d="M121 647q0 193 45 378t151 290q119 119 289 119q168 0 268 -99q82 -76 121 -215l-149 -51q-37 121 -88 168q-57 53 -158 53q-180 0 -254 -192q-61 -158 -70 -424q39 96 97 153q92 94 237 95q164 0 273 -113q127 -129 127 -363q0 -227 -138 -364q-115 -111 -282 -111 q-184 0 -303 129q-166 180 -166 547zM313 448.5q0 -153.5 93 -251.5q78 -82 186 -82q123 0 190 88q61 80 61.5 245.5t-75.5 253.5q-68 76 -172 76q-117 0 -195 -82q-88 -94 -88 -247.5z" />
<glyph unicode="7" d="M174 1257l16 148h791v-105q-154 -199 -256 -464q-160 -410 -164 -836h-172q-4 127 15.5 264t47 238.5t62.5 198t54.5 138.5t29.5 62q78 164 221 356h-645z" />
<glyph unicode="8" horiz-adv-x="1077" d="M80 356q0 152 104 258q72 72 183 119q-74 33 -138 96q-96 102 -96 234q0 166 113 268q111 102 307 103q186 0 295 -101q104 -94 104 -248q0 -133 -84 -223q-62 -65 -168 -108q96 -37 168 -101q129 -115 129 -286q0 -145 -90 -246q-135 -150 -370 -150q-217 0 -336 101 q-121 102 -121 284zM238 354q0 -111 77 -178q86 -76 220 -76q135 0 221 74q74 63 73 176q0 115 -104 203q-90 77 -203 102q-121 -31 -200 -106q-84 -78 -84 -195zM303 1075q0 -119 90 -190q56 -45 142 -74q119 39 182 94q84 74 84 174q0 102 -76 166q-74 59 -178 60 q-123 0 -189 -74q-55 -59 -55 -156z" />
<glyph unicode="9" horiz-adv-x="1081" d="M78 946q0 248 151 385q113 102 281 103q188 0 301 -123q145 -158 145 -537q0 -506 -196 -690q-121 -113 -309 -113q-129 0 -219.5 74t-135.5 207l144 65q35 -90 69 -131q61 -72 174 -71q104 0 172 73q78 84 115 301q20 117 21 226q-37 -96 -101 -154q-86 -80 -215 -80 q-150 0 -258 103q-139 129 -139 362zM244 938q0 -152 82 -236q76 -78 178 -77.5t176 82.5q84 94 84 251q0 180 -94 271q-64 61 -162 61q-117 0 -186 -82q-78 -92 -78 -270z" />
<glyph unicode=":" horiz-adv-x="507" d="M158 0v227h192v-227h-192zM158 811v229h192v-229h-192z" />
<glyph unicode=";" horiz-adv-x="507" d="M139 -268l125 268h-86v227h191v-227l-138 -268h-92zM178 811v229h191v-229h-191z" />
<glyph unicode="&#x3c;" horiz-adv-x="1079" d="M84 641v123l911 424v-139l-762 -347l762 -346v-139z" />
<glyph unicode="=" d="M111 516v129h862v-129h-862zM111 760v129h862v-129h-862z" />
<glyph unicode="&#x3e;" horiz-adv-x="1079" d="M84 219v137l762 346l-762 347v139l911 -424v-123z" />
<glyph unicode="?" horiz-adv-x="1046" d="M84 1024q8 96 49 187.5t107 142.5q100 80 266 80q158 0 260 -80q133 -104 133 -303q0 -160 -108 -275q-33 -35 -107 -92q-45 -35 -78 -68q-37 -39 -53 -77.5t-17 -81.5t1 -105h-152q0 127 4 162q16 127 115 215q10 8 70.5 54t87.5 77q68 78 67 199q0 123 -67 190 q-57 55 -160 56q-104 0 -172 -62q-83 -78 -99 -260zM365 0v215h190v-215h-190z" />
<glyph unicode="@" horiz-adv-x="1220" d="M8 678q0 410 250 618q162 137 397 138q211 0 355 -117q205 -170 204 -512q0 -260 -104 -399q-88 -117 -221 -117q-70 0 -109 37q-33 33 -39 86q-20 -51 -57 -82q-55 -49 -125 -49q-86 0 -149 59q-90 86 -91 276q0 256 119 381q80 86 183 86q137 0 178 -147l18 129h109 l-64 -436q-14 -121 -14 -150q0 -74 55 -73q72 0 121 71q72 102 72 309q0 293 -150 437q-121 115 -295 114q-180 0 -321 -131q-90 -84 -141.5 -223t-51.5 -309q0 -332 223 -500q137 -102 322 -102q207 0 379 106l39 -94q-213 -113 -432 -113q-213 0 -367 99 q-293 184 -293 608zM459 623q0 -66 12 -112t32.5 -67.5t37 -29.5t32.5 -8q66 0 117 99t51 263q0 94 -34 145q-31 45 -80 45q-63 0 -109 -73q-59 -100 -59 -262z" />
<glyph unicode="A" horiz-adv-x="1042" d="M35 0l393 1405h203l375 -1405h-172l-105 401h-422l-102 -401h-170zM344 539h348l-172 700z" />
<glyph unicode="B" horiz-adv-x="1122" d="M152 0v1405h380q199 0 281 -47q152 -88 152 -295q0 -133 -70 -219q-59 -70 -147 -96q96 -23 163 -89q102 -102 103 -266q0 -223 -170 -327q-106 -66 -301 -66h-391zM324 143h215q119 0 190 43q104 59 105 213q0 143 -99 215q-74 53 -229 54h-182v-525zM324 811h186 q135 0 195 41q79 52 79 187q0 130 -73 184q-55 39 -179 39h-208v-451z" />
<glyph unicode="C" horiz-adv-x="1077" d="M94 702q0 432 187 615q121 117 315 117q229 0 344 -191q57 -94 84 -237l-164 -41q-10 92 -43 165q-66 160 -225 160q-190 0 -266 -209q-51 -133 -52 -374q0 -229 52 -373q78 -219 268 -219q119 0 182 84q55 71 84 241l154 -39q-27 -236 -160 -346q-106 -84 -260 -84 q-219 0 -342 142q-158 180 -158 589z" />
<glyph unicode="D" horiz-adv-x="1189" d="M152 0v1405h305q289 0 456 -172q182 -188 183 -514q0 -168 -52.5 -315.5t-152.5 -243.5q-164 -160 -434 -160h-305zM324 143h133q229 0 352 166q106 143 106 391q0 256 -112 404q-121 158 -346 158h-133v-1119z" />
<glyph unicode="E" horiz-adv-x="974" d="M152 0v1405h763v-143h-591v-461h469v-144h-469v-514h610v-143h-782z" />
<glyph unicode="F" horiz-adv-x="864" d="M152 0v1405h737v-143h-565v-461h464v-144h-464v-657h-172z" />
<glyph unicode="G" horiz-adv-x="1185" d="M94 702q0 446 207 627q119 104 309 105q139 0 236 -62q147 -96 194 -321l-151 -60q-23 82 -47 137q-74 162 -240 162q-193 0 -270 -192q-57 -150 -58 -389q0 -285 72 -428q84 -166 258 -166q121 0 195 84q90 103 90 326v28h-287v143h451v-716h-117l-23 194 q-39 -80 -108 -133q-92 -70 -225 -70q-170 0 -287 105q-199 174 -199 626z" />
<glyph unicode="H" horiz-adv-x="1157" d="M152 0v1405h172v-594h510v594h172v-1405h-172v668h-510v-668h-172z" />
<glyph unicode="I" horiz-adv-x="475" d="M152 0v1405h172v-1405h-172z" />
<glyph unicode="J" horiz-adv-x="649" d="M-37 0v141q61 -26 137 -26h6q129 0 181 84q41 68 41 381v825h172v-825q0 -188 -10.5 -284.5t-45.5 -164.5q-86 -160 -297 -160q-86 0 -184 29z" />
<glyph unicode="K" horiz-adv-x="1044" d="M152 0v1405h172v-739l491 739h189l-367 -514l457 -891h-197l-369 737l-204 -288v-449h-172z" />
<glyph unicode="L" horiz-adv-x="829" d="M152 0v1405h172v-1262h532v-143h-704z" />
<glyph unicode="M" horiz-adv-x="1441" d="M141 0v1405h246l332 -1133l330 1133h241v-1405h-160v1217l-364 -1217h-121l-356 1221v-1221h-148z" />
<glyph unicode="N" horiz-adv-x="1196" d="M143 0v1405h222l536 -1112v1112h152v-1405h-172l-586 1196v-1196h-152z" />
<glyph unicode="O" horiz-adv-x="1191" d="M94 702q0 424 180 605q125 127 326 127t328 -134q170 -182 170 -598q0 -420 -170 -598q-127 -133 -328 -133q-199 0 -326 127q-96 96 -138 261t-42 343zM274 702.5q0 -213.5 45 -356.5q72 -231 277 -231q203 0 276 231q46 145 46 361q0 210 -46 352q-73 231 -276 231 q-205 0 -277 -231q-45 -143 -45 -356.5z" />
<glyph unicode="P" horiz-adv-x="1013" d="M152 0v1405h303q281 0 401 -123q111 -115 111 -291q0 -184 -105 -295q-68 -74 -166 -99.5t-241 -25.5h-131v-571h-172zM324 715h131q205 0 274 73q57 59 57 189q0 137 -59 209q-31 35 -86 53t-89 20.5t-97 2.5h-131v-547z" />
<glyph unicode="Q" horiz-adv-x="1187" d="M94 702q0 422 178 605q123 127 326 127q205 0 328 -134q168 -178 168 -598q0 -418 -170 -598q-84 -88 -203 -118q0 -109 31 -146q39 -45 131 -45q59 0 114 23v-142q-73 -28 -146 -28h-5q-106 0 -176 47q-111 73 -111 263v13q-188 27 -287 127q-59 61 -100 155.5 t-55.5 194t-18.5 153.5t-4 101zM274 702q0 -213 45 -356q72 -231 275 -231q205 0 274 231q45 145 45 356q0 213 -45 357q-69 231 -274 231q-203 0 -275 -231q-45 -141 -45 -357z" />
<glyph unicode="R" horiz-adv-x="1081" d="M152 0v1405h407q227 0 338 -129q86 -100 86 -248q0 -162 -98 -276q-63 -74 -140 -99l265 -653h-181l-237 612h-268v-612h-172zM324 756h211q158 0 223 94q45 70 45 176q0 96 -39 152q-59 84 -215 84h-225v-506z" />
<glyph unicode="S" horiz-adv-x="1079" d="M63 369l156 45q29 -133 94 -205q86 -94 234 -94q121 0 196 61q76 66 76 176q0 104 -71 172q-53 49 -203 109q-16 6 -68.5 27.5t-72 29.5t-55.5 25.5t-59.5 33t-45.5 35.5q-123 111 -123 283q0 164 127 272q113 94 287 95q190 0 301 -119q85 -91 118 -232l-151 -43 q-37 113 -74 158q-72 92 -207 92q-111 0 -168 -57q-65 -65 -65 -161q0 -75 51 -134q27 -29 72 -54.5t78.5 -39t107.5 -39.5q201 -76 283 -152q115 -111 114 -272q0 -188 -131 -303q-123 -106 -317 -107q-215 0 -346 119q-115 106 -138 279z" />
<glyph unicode="T" horiz-adv-x="753" d="M-45 1262v143h844v-143h-336v-1262h-172v1262h-336z" />
<glyph unicode="U" horiz-adv-x="1157" d="M150 475v930h172v-930v-42v-43t1 -38.5t3 -39t6 -34t10 -35t14.5 -28.5t20.5 -29.5t29 -23.5q63 -47 180 -47q115 0 182 59q29 27 45 55.5t22.5 78.5t7.5 75t1 102v920h164v-911q0 -166 -22.5 -263.5t-104.5 -167.5q-106 -92 -293 -92q-188 0 -295 78q-66 47 -98.5 124 t-38.5 137.5t-6 164.5z" />
<glyph unicode="V" horiz-adv-x="970" d="M14 1405h176l308 -1163l303 1163h164l-392 -1405h-176z" />
<glyph unicode="W" horiz-adv-x="1474" d="M39 1405h168l225 -1116l250 1116h133l256 -1116l223 1116h148l-291 -1405h-156l-254 1075l-241 -1075h-160z" />
<glyph unicode="X" horiz-adv-x="901" d="M-14 0l366 735l-319 670h188l232 -516l262 516h155l-323 -641l368 -764h-200l-266 602l-304 -602h-159z" />
<glyph unicode="Y" horiz-adv-x="821" d="M-63 1405h180l309 -647l303 647h156l-387 -807v-598h-172v598z" />
<glyph unicode="Z" horiz-adv-x="864" d="M12 0v152l635 1110h-600v143h795v-117l-652 -1136h666v-152h-844z" />
<glyph unicode="[" horiz-adv-x="651" d="M176 -352v1757h307v-109h-153v-1542h153v-106h-307z" />
<glyph unicode="\" horiz-adv-x="935" d="M111 1405h131l710 -1757h-133z" />
<glyph unicode="]" horiz-adv-x="649" d="M168 -246h154v1542h-154v109h305v-1757h-305v106z" />
<glyph unicode="^" horiz-adv-x="1054" d="M59 776l375 633h187l374 -633h-153l-316 520l-315 -520h-152z" />
<glyph unicode="_" horiz-adv-x="1054" d="M0 -143h1055v-129h-1055v129z" />
<glyph unicode="`" horiz-adv-x="1067" d="M244 1386l98 125l334 -233l-66 -80z" />
<glyph unicode="a" horiz-adv-x="976" d="M86 281q0 133 80 235q106 133 360 133q66 0 156 -8v45q0 125 -41 184q-51 74 -160 74q-84 0 -137 -49q-51 -47 -63 -119l-156 29q14 96 98 172q109 94 266 94q137 0 226 -57q43 -31 69.5 -69t35.5 -96t11.5 -91t2.5 -113v-309q0 -266 20 -336h-149q-8 90 -11 184 q-39 -76 -84 -125q-82 -88 -209 -88q-160 0 -243 99q-72 86 -72 211zM299 143q47 -45 127 -45q133 0 209 135q51 92 51 215q0 34 -4 70q-61 12 -123 12q-174 0 -246 -71q-65 -65 -65 -175q0 -91 51 -141z" />
<glyph unicode="b" horiz-adv-x="1013" d="M141 0v1411h156v-508q29 66 98 111q72 49 164 49q141 0 227 -86q139 -139 140 -438q0 -332 -148 -471q-94 -90 -235 -91q-115 0 -183 48q-57 39 -96 125l-31 -121l-8 -29h-84zM299 449q0 -66 3 -106t21.5 -92t53.5 -85q66 -61 158 -62q96 0 153 84q70 102 70 330 q0 266 -74 352q-55 66 -152 66q-88 0 -147 -66q-86 -92 -86 -266v-155z" />
<glyph unicode="c" horiz-adv-x="862" d="M88 508q0 152 22.5 260.5t100.5 194.5q97 108 259 108h3q160 0 246 -98t98 -254l-151 -31q-31 158 -70 203q-49 53 -127 53q-47 0 -82 -16.5t-55.5 -45t-29.5 -51t-17 -53.5q-29 -111 -29 -272q0 -193 35 -275q57 -133 182 -133q82 0 129 60q45 53 64 196l151 -18 q-8 -164 -86 -256q-94 -109 -274 -109q-160 0 -260 125q-49 61 -76 145.5t-30 134.5t-3 132z" />
<glyph unicode="d" horiz-adv-x="1011" d="M88 498q0 322 139 469q92 96 232 96q96 0 164 -45q66 -43 92 -117v510h155v-1411h-141v150q-27 -68 -88 -113q-82 -59 -201 -60q-109 0 -194 68q-158 127 -158 453zM256 528q0 -178 37 -276q57 -147 199 -148q76 0 135 52q57 47 72.5 109t15.5 181v177q0 186 -101 266 q-59 47 -133 47q-150 0 -198 -178q-27 -96 -27 -230z" />
<glyph unicode="e" horiz-adv-x="940" d="M88 506q0 291 129 440q106 125 266 125q203 0 305 -176q78 -133 78 -393h-618q4 -246 94 -338q63 -63 145 -64q92 0 150 64q43 45 70 143l141 -31q-20 -131 -114.5 -218t-244.5 -87q-160 0 -258 95q-143 135 -143 440zM256 629h436q1 14 1 28q0 161 -87 238 q-55 49 -127 49q-80 0 -135 -59q-37 -41 -61.5 -117t-26.5 -139z" />
<glyph unicode="f" horiz-adv-x="503" d="M18 918v126h152q2 82 4 123t19.5 104.5t50.5 98.5q66 70 200 70q53 0 121 -15v-129q-27 12 -80 13q-92 0 -129 -49q-30 -45 -30 -197v-19h190v-126h-190v-918h-156v918h-152z" />
<glyph unicode="g" horiz-adv-x="905" d="M119 25q35 41 88 57q-100 57 -101 170q0 68 50 125q39 47 90 59q-117 96 -117 277q0 154 92 254q94 104 252 104q100 0 176 -45q8 90 62 137q49 45 155 45h27v-137q-25 6 -49 6q-35 0 -56 -18q-8 -6 -15 -15.5t-11 -14.5t-8 -18.5t-5 -17.5t-5.5 -22.5t-4.5 -22.5 q80 -100 80 -245.5t-96 -246t-244 -100.5q-74 0 -139 15q-41 -8 -61 -27q-27 -27 -27 -65q0 -61 61 -89q8 -4 17.5 -7t23 -5t22.5 -3t28.5 -2t33 -1t43 -1t49.5 -1q78 -2 120 -6t104.5 -20.5t97.5 -45.5q76 -63 76 -176q0 -119 -62 -192q-109 -129 -387 -129q-186 0 -297 67 q-116 71 -116 197q0 102 53 160zM225 -100q0 -92 76 -138q57 -34 189 -34h8q156 0 219 55q51 43 51 111q0 121 -133 139q-80 10 -320 10q-47 -23 -68.5 -64.5t-21.5 -78.5zM285 698q0 -111 57 -168q55 -55 137 -55t137 76q47 63 48 160q0 111 -58 174q-53 59 -135 59 q-80 0 -133 -61.5t-53 -184.5z" />
<glyph unicode="h" horiz-adv-x="980" d="M141 0v1411h156v-528q35 92 96 139q63 49 168 49q131 0 205 -82q16 -16 27.5 -36.5t19.5 -38t13 -43t8.5 -41t4.5 -46t1 -43v-48.5v-46v-647h-156v647q0 195 -49 248q-43 49 -123 49q-78 0 -135 -72q-80 -100 -80 -327v-545h-156z" />
<glyph unicode="i" horiz-adv-x="438" d="M135 1227v182h168v-182h-168zM141 0v1044h156v-1044h-156z" />
<glyph unicode="j" horiz-adv-x="434" d="M-88 -225q80 -14 113 -15q61 0 88 41q8 12 13 27.5t7 30t3 41t1 41v49.5v51v1003h156v-1003v-48v-55.5t-2 -49.5t-7 -54t-12.5 -45t-19.5 -49.5t-29 -38.5q-63 -70 -188 -70q-70 0 -123 15v129zM131 1227v182h168v-182h-168z" />
<glyph unicode="k" horiz-adv-x="868" d="M141 0v1411h152v-887l375 520h172l-277 -372l309 -672h-167l-244 555l-168 -227v-328h-152z" />
<glyph unicode="l" horiz-adv-x="438" d="M141 0v1411h156v-1411h-156z" />
<glyph unicode="m" horiz-adv-x="1480" d="M141 0v1044h148v-161q23 74 76 123q67 65 171 65h3q119 0 184 -65q57 -57 68 -146q37 88 81 135q74 76 197 76q121 0 188 -67q14 -12 25.5 -29t20 -29t14.5 -32.5t10 -33t7 -37t4 -34.5t2 -41t1 -39v-43v-43v-643h-151v635q0 195 -39 250q-43 59 -127 59q-70 0 -125 -55 q-82 -82 -82 -275v-614h-151v614q0 184 -19 232q-4 12 -10 22q-43 76 -135 76t-152 -82q-57 -82 -57 -258v-604h-152z" />
<glyph unicode="n" horiz-adv-x="980" d="M141 0v1044h148v-163q27 70 69 114q74 76 195 76q147 0 223 -90q33 -39 47.5 -100.5t15.5 -92t1 -126.5v-662h-156v643q0 74 -1 109.5t-11 80t-31 66.5q-41 45 -121 45q-90 0 -145 -65q-78 -90 -78 -316v-563h-156z" />
<glyph unicode="o" horiz-adv-x="972" d="M88 522q0 135 35 256t100 189q100 104 266 104q152 0 248 -90q148 -135 148 -461q0 -322 -148 -457q-100 -92 -248 -92q-166 0 -266 105q-66 68 -100.5 189.5t-34.5 256.5zM256 522q0 -166 39 -268q59 -156 192.5 -156t190.5 156q39 102 39 268q0 160 -39 264 q-55 158 -192.5 158t-190.5 -158q-39 -104 -39 -264z" />
<glyph unicode="p" horiz-adv-x="1011" d="M141 -354v1398h144v-184q29 92 98.5 147.5t173.5 55.5q143 0 234 -100q133 -145 133 -439q0 -131 -38 -266t-120 -207q-84 -74 -209 -74q-98 0 -160 43q-59 41 -100 115v-489h-156zM297 444q0 -195 86 -278q59 -57 141 -57q80 0 133 55q98 102 99 362q0 238 -88 342 q-55 68 -142 68q-88 0 -151 -74q-49 -55 -63.5 -113.5t-14.5 -150.5v-154z" />
<glyph unicode="q" horiz-adv-x="1011" d="M88 516q0 319 164 467q90 80 217 80q23 0 47.5 -4t69.5 -19.5t84 -58.5t59 -109q30 74 57 187h84v-1413h-155v510q-43 -84 -103 -127q-72 -51 -168 -52q-127 0 -217 91q-139 137 -139 448zM256 518q0 -184 47 -282q59 -131 180 -132q131 0 199 154q33 76 33 221v121 q0 199 -109 289q-55 47 -121 47q-82 0 -143 -68q-86 -98 -86 -350z" />
<glyph unicode="r" horiz-adv-x="544" d="M141 0v1044h140v-217q33 106 114 183q70 63 148 63q23 0 39 -4v-174q-20 4 -45 4q-72 0 -134 -51q-106 -90 -106 -307v-541h-156z" />
<glyph unicode="s" horiz-adv-x="827" d="M37 268l141 33q10 -76 55 -127q66 -76 179 -76q96 0 155 52q63 55 64 129q0 68 -60 110q-47 33 -172 72q-10 4 -46 14t-53 16.5t-46 17.5t-50.5 24.5t-39.5 29.5q-90 78 -90 199q0 139 96 225q94 84 246 84q154 0 246 -104q60 -68 83 -160l-137 -37q-18 66 -55 107 q-56 67 -149 67h-3q-82 0 -131 -49q-45 -43 -45 -111q0 -72 58 -114q12 -10 30.5 -18.5t32.5 -12.5t55 -16.5t66 -20.5q154 -47 215 -94q104 -78 104 -223q0 -139 -108 -230q-102 -84 -270 -84q-178 0 -275 95q-78 76 -96 202z" />
<glyph unicode="t" horiz-adv-x="540" d="M6 918v126h152v244l155 12v-256h205v-126h-205v-527q0 -184 21 -221q37 -63 127 -64q59 0 106 11v-131q-92 -14 -139 -15q-135 0 -201 66q-16 16 -28.5 36.5t-19.5 50.5t-12 48t-7 58t-2 52.5v58.5v50v527h-152z" />
<glyph unicode="u" horiz-adv-x="976" d="M141 385v659h156v-659q0 -182 27 -225q37 -61 127 -62q78 0 133 56q35 35 56.5 84t28.5 114.5t9 103.5t2 109v479h156v-1044h-146v156q-31 -76 -92 -127q-72 -57 -178 -58q-131 0 -203 80q-76 86 -76 334z" />
<glyph unicode="v" horiz-adv-x="788" d="M14 1044h154l240 -858l227 858h139l-299 -1044h-158z" />
<glyph unicode="w" horiz-adv-x="1187" d="M27 1044h151l182 -786l179 786h108l195 -792l184 792h131l-256 -1044h-133l-176 733l-166 -733h-139z" />
<glyph unicode="x" horiz-adv-x="720" d="M-27 0l295 549l-268 495h178l184 -354l179 354h159l-260 -481l308 -563h-179l-219 416l-215 -416h-162z" />
<glyph unicode="y" horiz-adv-x="862" d="M41 1044h164l213 -776l231 776h152l-359 -1150q-45 -141 -88 -193q-68 -76 -184 -76q-59 0 -111 10v134q33 -8 68 -9q53 0 85 14.5t56 57.5q29 47 70 203z" />
<glyph unicode="z" horiz-adv-x="688" d="M18 0v127l461 788h-422v129h623v-86l-483 -831h483v-127h-662z" />
<glyph unicode="{" horiz-adv-x="651" d="M88 473v129q37 -4 68 16q20 12 31.5 30t16.5 47.5t6 43t0 59.5t-1 56v215q0 162 18 211q54 148 271 125v-109q-90 0 -119 -51q-16 -29 -17 -176v-215q0 -211 -43 -264q-33 -39 -88 -51q59 -16 88 -54q43 -51 43 -264v-241q0 -141 17 -173q33 -61 119 -53v-106 q-211 -33 -271 123q-18 53 -18 209v241q0 12 1 47t0 48.5t-3 40t-8 41t-16.5 31.5t-26.5 28q-31 23 -68 16z" />
<glyph unicode="|" horiz-adv-x="1073" d="M467 -352v1757h139v-1757h-139z" />
<glyph unicode="}" horiz-adv-x="649" d="M154 -246q88 -8 118 53q18 35 19 173v241q0 174 18 223q8 25 23 41q29 37 88 54q-55 12 -88 51q-20 25 -29.5 65.5t-10.5 72.5t-1 99v27v215q0 141 -19 176q-16 31 -42.5 40t-75.5 11v109q217 23 270 -125q18 -49 18 -211v-215q0 -158 15 -190q14 -29 42.5 -47.5 t61.5 -14.5v-129q-33 4 -61.5 -14.5t-42.5 -48.5q-14 -33 -15 -189v-241q0 -156 -18 -209q-59 -156 -270 -123v106z" />
<glyph unicode="~" horiz-adv-x="1413" d="M201 1286q59 119 102 162q72 76 197 76q59 0 137 -35l119 -53q125 -55 178 -56q72 0 123 52q27 27 69 96l86 -51q-31 -66 -92 -142q-88 -88 -205 -88q-72 0 -170 45l-102 47q-111 49 -168 50q-70 0 -121 -56q-26 -26 -69 -100z" />
<glyph unicode="&#xa3;" horiz-adv-x="1079" d="M61 0v141h45q117 0 199 60q121 90 121 272q0 111 -23 193h-237v127h217q-31 178 -31 258q0 197 115 299q96 84 250 84q123 0 213 -66q76 -57 108 -125l-116 -98q-31 61 -64 94q-59 55 -137 55q-94 0 -148 -57q-55 -59 -55 -190q0 -80 35 -254h293v-127h-277 q16 -70 17 -140q0 -143 -51 -239q-49 -98 -138 -150h160q184 0 244 23q106 39 160 147l116 -90q-78 -147 -213 -190q-82 -27 -307 -27h-496z" />
<glyph unicode="&#xa7;" horiz-adv-x="1081" d="M135 -53l152 26q10 -76 69 -141q70 -72 195 -72q104 0 170 58q68 61 67 153q0 111 -88 172q-41 29 -215 88q-164 55 -227 115q-82 76 -82 195q0 94 43 164.5t131 140.5q-135 90 -135 274q0 147 104 236q90 78 236 78q178 0 274 -97q62 -61 91 -184l-148 -23 q-14 66 -59 119q-59 68 -166 68q-94 0 -141 -62q-39 -49 -39 -129q0 -86 67 -147q45 -41 197 -92q4 -2 22.5 -8.5t26.5 -8.5t24.5 -8t26.5 -11t26.5 -12.5t29 -15.5t26.5 -18t27 -21q94 -86 94 -215q0 -158 -158 -282q170 -102 170 -295q0 -154 -117 -258 q-113 -100 -290 -101q-190 0 -293 101q-84 82 -111 213zM319 586q0 -78 46.5 -122t130.5 -77q57 -25 174 -57q119 94 118 213q0 121 -184 194q-16 6 -50 18.5t-46 16.5l-64 25q-125 -98 -125 -211z" />
<glyph unicode="&#xa8;" horiz-adv-x="1062" d="M268 1221v182h166v-182h-166zM631 1221v182h166v-182h-166z" />
<glyph unicode="&#xa9;" horiz-adv-x="1658" d="M94 702.5q0 301.5 216 516.5t519.5 215t519.5 -215t216 -516.5t-216.5 -516.5t-521.5 -215q-301 0 -517 215t-216 516.5zM211 702.5q0 -258.5 180 -439.5t436 -181q258 0 438.5 180t180.5 440q0 256 -181.5 439.5t-435.5 183.5q-258 0 -438 -182t-180 -440.5zM514 692 q0 264 125 377q82 72 201 72q92 0 153 -39q104 -63 135 -232l-127 -26q-23 115 -59 151q-39 39 -102 39q-109 0 -154 -114q-33 -80 -33 -228q0 -117 33 -200q47 -121 158 -121q68 0 104 45q30 41 53 147l121 -26q-18 -150 -108 -220q-68 -53 -170 -53q-141 0 -223 86 q-106 111 -107 342z" />
<glyph unicode="&#xab;" horiz-adv-x="757" d="M96 543l183 295h96l-99 -295l99 -297h-96zM383 543l182 311h97l-99 -311l99 -314h-97z" />
<glyph unicode="&#xac;" horiz-adv-x="1054" d="M72 432v129h911v-561h-139v432h-772z" />
<glyph unicode="&#xad;" horiz-adv-x="614" d="M74 459v127h467v-127h-467z" />
<glyph unicode="&#xae;" horiz-adv-x="1658" d="M94 702.5q0 301.5 216 516.5t519.5 215t519.5 -215t216 -516.5t-216.5 -516.5t-521.5 -215q-301 0 -517 215t-216 516.5zM211 702.5q0 -258.5 180 -439.5t436 -181q258 0 438.5 180t180.5 440q0 256 -181.5 439.5t-435.5 183.5q-258 0 -438 -182t-180 -440.5zM571 281 v843h269q154 0 221 -77q55 -61 55 -160q0 -96 -63 -164q-25 -25 -78 -55l168 -387h-144l-147 358h-150v-358h-131zM702 745h123q94 0 131 50q27 33 27 92q0 86 -65 117q-35 16 -84 16h-132v-275z" />
<glyph unicode="&#xb0;" horiz-adv-x="1085" d="M219 1110q0 135 94 229q91 95 230 95q135 0 229 -94.5t94 -229.5q0 -133 -94 -227q-96 -96 -229 -96.5t-230 96.5q-94 94 -94 227zM365 1110q0 -88 51 -145q53 -59 127 -60q76 0 129 60q51 57 51 145q0 84 -51 145.5t-129 61.5q-76 0 -127 -61.5t-51 -145.5z" />
<glyph unicode="&#xb1;" d="M111 41v127h862v-127h-862zM111 639v127h362v369h135v-369h365v-127h-365v-369h-135v369h-362z" />
<glyph unicode="&#xb4;" horiz-adv-x="1067" d="M428 1278l334 233l98 -125l-366 -188z" />
<glyph unicode="&#xb6;" d="M57 1017.5q0 168.5 90 272.5q59 70 137 92.5t199 22.5h437v-1757h-123v1636h-109v-1636h-123v979h-82q-78 0 -119.5 3t-109.5 31.5t-113 83.5q-84 104 -84 272.5z" />
<glyph unicode="&#xbb;" horiz-adv-x="757" d="M96 229l99 314l-99 311h94l185 -311l-185 -314h-94zM383 229l98 314l-98 311h94l185 -311l-185 -314h-94z" />
<glyph unicode="&#xf7;" d="M111 639v127h862v-127h-862zM453 330v196h176v-196h-176zM453 879v196h176v-196h-176z" />
<glyph unicode="&#x131;" horiz-adv-x="436" d="M141 0v1044h154v-1044h-154z" />
<glyph unicode="&#x192;" horiz-adv-x="1077" d="M55 -309l25 137q4 0 33.5 -2t42.5 -2q104 0 155 63q41 53 80 273l115 647h-182l20 127h184q57 270 113 356q92 141 295 142q33 0 86 -9l-23 -127h-38q-109 0 -166 -45q-74 -61 -115 -317h238l-21 -127h-240l-114 -647q-14 -82 -18.5 -106.5t-21 -89t-32.5 -94.5t-45 -69 t-68 -63q-82 -53 -204 -53q-51 0 -99 6z" />
<glyph unicode="&#x2d9;" horiz-adv-x="1071" d="M418 1309q0 55 35 88q35 31 84 30q47 0 81 -30q35 -33 35 -88q0 -53 -34.5 -84t-83.5 -31q-45 0 -82 31q-35 31 -35 84z" />
<glyph unicode="&#x401;" horiz-adv-x="974" d="M152 0v1405h763v-143h-591v-461h469v-144h-469v-514h610v-143h-782zM254 1524v180h176v-180h-176zM633 1524v180h176v-180h-176z" />
<glyph unicode="&#x402;" horiz-adv-x="1220" d="M-45 1262v143h868v-143h-360v-490q137 61 276 62q203 0 318 -134q98 -115 98 -313q0 -164 -84 -270q-104 -133 -307 -133q-100 0 -182 24l32 144q59 -25 131 -25q115 0 179 84q51 66 51 178q0 127 -49 195q-74 106 -232 106q-121 0 -231 -65v-625h-172v1262h-336z" />
<glyph unicode="&#x403;" horiz-adv-x="933" d="M152 0v1405h741v-143h-569v-1262h-172zM360 1640l381 175l78 -144l-405 -125z" />
<glyph unicode="&#x404;" horiz-adv-x="1107" d="M90 729q0 164 37 302t63.5 183.5t49.5 73.5q117 145 321 146q213 0 336 -140q96 -110 129 -280l-166 -27q-20 121 -74 195q-80 109 -215 108q-152 0 -229 -139q-72 -125 -72 -348h471v-144h-475q0 -211 49 -337q78 -207 271 -207q150 0 223 118q43 70 55 175l174 -31 q-10 -82 -45 -162t-82 -129q-111 -115 -309 -115q-147 0 -248.5 57.5t-167.5 194.5q-96 199 -96 506z" />
<glyph unicode="&#x405;" horiz-adv-x="1079" d="M63 369l156 45q29 -133 94 -205q86 -94 234 -94q121 0 196 61q76 66 76 176q0 104 -71 172q-53 49 -203 109q-16 6 -68.5 27.5t-72 29.5t-55.5 25.5t-59.5 33t-45.5 35.5q-123 111 -123 283q0 164 127 272q113 94 287 95q190 0 301 -119q85 -91 118 -232l-151 -43 q-37 113 -74 158q-72 92 -207 92q-111 0 -168 -57q-66 -66 -65 -164q0 -72 51 -131q27 -29 72 -54.5t78.5 -39t107.5 -39.5q201 -76 283 -152q115 -111 114 -272q0 -188 -131 -303q-123 -106 -317 -107q-215 0 -346 119q-115 106 -138 279z" />
<glyph unicode="&#x406;" horiz-adv-x="475" d="M152 0v1405h172v-1405h-172z" />
<glyph unicode="&#x407;" horiz-adv-x="479" d="M10 1524v180h164v-180h-164zM150 0v1405h172v-1405h-172zM305 1524v180h164v-180h-164z" />
<glyph unicode="&#x408;" horiz-adv-x="649" d="M-37 0v141q63 -27 143 -26q129 0 181 84q41 68 41 381v825h172v-825q0 -188 -10.5 -284.5t-45.5 -164.5q-86 -160 -297 -160q-86 0 -184 29z" />
<glyph unicode="&#x409;" horiz-adv-x="1748" d="M0 0v158q129 -25 201 100q61 111 90 422q23 262 22 661v64h670v-584h215q248 0 356 -98q55 -51 88 -139t33 -189q0 -180 -106 -289q-104 -106 -293 -106h-465v1262h-344q0 -295 -21 -537q-43 -512 -194 -657q-80 -76 -189 -76q-39 0 -63 8zM983 143h270q113 0 179 66 q63 63 63 182q0 143 -72 215q-76 72 -194 72h-246v-535z" />
<glyph unicode="&#x40a;" horiz-adv-x="1771" d="M152 0v1405h172v-590h510v590h172v-590h215q252 0 356 -92q61 -53 91 -145.5t30 -182.5q0 -180 -107 -289q-104 -106 -293 -106h-464v672h-510v-672h-172zM1006 143h270q113 0 178 66q63 63 64 182q0 147 -72 215q-70 66 -195 66h-245v-529z" />
<glyph unicode="&#x40b;" horiz-adv-x="1277" d="M-45 1262v143h868v-143h-360v-490q141 57 274 57q195 0 301 -106q109 -109 109 -291v-432h-172v389q0 55 -7 97t-32 92.5t-83 79t-146 28.5q-123 0 -244 -61v-625h-172v1262h-336z" />
<glyph unicode="&#x40c;" horiz-adv-x="1058" d="M152 0v1405h172v-629h104q111 0 168 58q55 55 72 174q6 35 11 113.5t13 113.5q27 113 108 152.5t167 17.5v-133q-53 10 -90 -19q-35 -25 -43 -100q-18 -190 -29 -238q-33 -158 -164 -190v-6q150 -33 197 -176q23 -70 30 -217q6 -117 25 -146q14 -23 44 -34t60 -5v-133 q-29 -16 -67 -16q-82 0 -135 41q-51 39 -72 141q-6 35 -23 197q-6 66 -10 92t-22.5 69t-51.5 68q-57 41 -153 41h-139v-641h-172zM385 1640l381 175l78 -144l-406 -125z" />
<glyph unicode="&#x40e;" horiz-adv-x="935" d="M10 1405h180l318 -836h4l272 836h156l-348 -1038q-80 -238 -135 -301q-82 -94 -234 -95q-55 0 -102 17v149q41 -14 94 -14q96 0 156 78q47 61 67 151zM180 1733h148q2 -61 47 -97.5t94 -36.5t94 36.5t47 97.5h148q-8 -109 -88 -181q-82 -70 -201 -69.5t-201 69.5 q-80 72 -88 181z" />
<glyph unicode="&#x40f;" horiz-adv-x="1118" d="M152 0v1405h172v-1253h471v1253h172v-1405h-328v-307h-160v307h-327z" />
<glyph unicode="&#x410;" horiz-adv-x="1042" d="M35 0l393 1405h203l375 -1405h-172l-105 401h-422l-102 -401h-170zM344 539h348l-172 700z" />
<glyph unicode="&#x411;" horiz-adv-x="1079" d="M152 0v1405h768v-143h-596v-443h194q233 0 344 -108q109 -104 109 -299q0 -190 -94 -301q-96 -111 -259 -111h-466zM324 143h254q106 0 161 70q53 68 54 203q0 125 -62 190q-66 70 -213 70h-194v-533z" />
<glyph unicode="&#x412;" horiz-adv-x="1122" d="M152 0v1405h380q199 0 281 -47q152 -88 152 -295q0 -133 -70 -219q-59 -70 -147 -96q96 -23 163 -89q102 -102 103 -266q0 -223 -170 -327q-106 -66 -301 -66h-391zM324 143h215q119 0 190 43q104 59 105 213q0 143 -99 215q-74 53 -229 54h-182v-525zM324 811h186 q135 0 195 41q80 53 79 190q0 127 -73 181q-55 39 -179 39h-208v-451z" />
<glyph unicode="&#x413;" horiz-adv-x="933" d="M152 0v1405h741v-143h-569v-1262h-172z" />
<glyph unicode="&#x414;" horiz-adv-x="1153" d="M6 152h96q117 213 177 471q45 190 65 432q8 94 10 197.5t2 109.5l2 43h631v-1253h144v-496h-164v344h-799v-344h-164v496zM279 152h538v1110h-311l-6 -95q-23 -344 -66 -551q-57 -262 -155 -464z" />
<glyph unicode="&#x415;" horiz-adv-x="974" d="M152 0v1405h763v-143h-591v-461h469v-144h-469v-514h610v-143h-782z" />
<glyph unicode="&#x416;" horiz-adv-x="1474" d="M61 8v133q31 -6 61 5.5t44 33.5q18 27 24 146q12 172 31 225q18 59 66.5 104t113.5 64v6q-125 37 -157 186q-20 94 -29 242q-8 72 -41 100q-31 27 -90 19v133q86 23 165 -16t107 -154q6 -27 10.5 -58.5t7.5 -78.5t5 -74q12 -145 57 -195q51 -53 174 -53h47v629h160v-629 h47q123 0 174 53q45 49 58 195q2 27 5 74t7 78.5t10 58.5q25 104 101.5 149.5t162.5 20.5v-133q-49 10 -81.5 -18.5t-40.5 -100.5q-2 -29 -7.5 -84t-9.5 -89t-12 -69q-37 -152 -158 -186v-6q66 -18 114 -63.5t66 -104.5q18 -53 31 -225q6 -119 25 -146q14 -23 43.5 -34 t60.5 -5v-133q-29 -16 -67 -16q-78 0 -131.5 41t-71.5 141q-6 31 -23 213q-6 59 -10 88t-20.5 67t-47.5 60q-51 39 -143 39h-82v-641h-160v641h-82q-92 0 -143 -39q-31 -23 -47 -60.5t-20.5 -66.5t-10.5 -88q-16 -182 -22 -213q-18 -100 -71.5 -141t-131.5 -41q-39 0 -68 16 z" />
<glyph unicode="&#x417;" horiz-adv-x="1099" d="M74 387l168 25q4 -147 67 -219q68 -78 217.5 -78t221.5 75q66 70 65 187q0 145 -96 219q-74 55 -213 55h-168v144h151q154 0 215 53q70 61 70 192q0 127 -63 189q-61 61 -180 61t-183 -73q-59 -68 -78 -199l-155 31q27 180 137 282.5t291 102.5q168 0 274 -82 q129 -102 129 -299q0 -121 -49 -197q-57 -90 -168 -123v-4q106 -23 182 -104q82 -94 82 -246q0 -195 -127 -303q-123 -104 -346 -105q-203 0 -309 97q-59 55 -95 142t-40 177z" />
<glyph unicode="&#x418;" horiz-adv-x="1179" d="M152 0v1405h172v-895q0 -43 -13 -141q2 4 12.5 20.5t12.5 20.5q8 16 17 34.5t14 24.5l489 782v154h172v-1405h-172v899q0 70 12 160q-49 -90 -55 -101l-489 -782v-176h-172z" />
<glyph unicode="&#x419;" horiz-adv-x="1179" d="M152 0v1405h172v-895q0 -43 -13 -141q2 4 12.5 20.5t12.5 20.5q8 16 17 34.5t14 24.5l489 782v154h172v-1405h-172v899q0 70 12 160q-49 -90 -55 -101l-489 -782v-176h-172zM309 1733h148q2 -61 47 -97.5t94 -36.5t94 36.5t47 97.5h148q-8 -109 -88 -181 q-82 -70 -201 -69.5t-201 69.5q-80 72 -88 181z" />
<glyph unicode="&#x41a;" horiz-adv-x="1058" d="M152 0v1405h172v-629h104q111 0 168 58q55 55 72 174q6 35 11 113.5t13 113.5q27 113 108 152.5t167 17.5v-133q-53 10 -90 -19q-35 -25 -43 -100q-18 -190 -29 -238q-33 -158 -164 -190v-6q150 -33 197 -176q23 -70 30 -217q6 -117 25 -146q14 -23 44 -34t60 -5v-133 q-29 -16 -67 -16q-82 0 -135 41q-51 39 -72 141q-6 35 -23 197q-6 66 -10 92t-22.5 69t-51.5 68q-57 41 -153 41h-139v-641h-172z" />
<glyph unicode="&#x41b;" horiz-adv-x="1134" d="M0 0v158q129 -25 201 100q61 111 90 422q23 262 22 661v64h670v-1405h-172v1262h-344q0 -295 -21 -537q-43 -512 -194 -657q-80 -76 -189 -76q-39 0 -63 8z" />
<glyph unicode="&#x41c;" horiz-adv-x="1441" d="M141 0v1405h246l332 -1133l330 1133h241v-1405h-160v1217l-364 -1217h-121l-356 1221v-1221h-148z" />
<glyph unicode="&#x41d;" horiz-adv-x="1157" d="M152 0v1405h172v-594h510v594h172v-1405h-172v668h-510v-668h-172z" />
<glyph unicode="&#x41e;" horiz-adv-x="1191" d="M94 702q0 424 180 605q125 127 326 127t328 -134q170 -182 170 -598q0 -420 -170 -598q-127 -133 -328 -133q-199 0 -326 127q-96 96 -138 261t-42 343zM274 702.5q0 -213.5 45 -356.5q72 -231 277 -231q203 0 276 231q45 143 45.5 356t-45.5 357q-73 231 -276 231 q-205 0 -277 -231q-45 -143 -45 -356.5z" />
<glyph unicode="&#x41f;" horiz-adv-x="1132" d="M152 0v1405h829v-1405h-172v1262h-485v-1262h-172z" />
<glyph unicode="&#x420;" horiz-adv-x="1013" d="M152 0v1405h303q281 0 401 -123q111 -115 111 -291q0 -184 -105 -295q-68 -74 -166 -99.5t-241 -25.5h-131v-571h-172zM324 715h131q205 0 274 73q57 59 57 189q0 137 -59 209q-31 35 -86 53t-89 20.5t-97 2.5h-131v-547z" />
<glyph unicode="&#x421;" horiz-adv-x="1077" d="M94 702q0 432 187 615q121 117 315 117q229 0 344 -191q57 -94 84 -237l-164 -41q-10 92 -43 165q-66 160 -225 160q-190 0 -266 -209q-51 -133 -52 -374q0 -229 52 -373q78 -219 268 -219q119 0 182 84q55 71 84 241l154 -39q-27 -236 -160 -346q-106 -84 -260 -84 q-219 0 -342 142q-158 180 -158 589z" />
<glyph unicode="&#x422;" horiz-adv-x="753" d="M-45 1262v143h844v-143h-336v-1262h-172v1262h-336z" />
<glyph unicode="&#x423;" horiz-adv-x="935" d="M10 1405h180l318 -836h4l272 836h156l-348 -1038q-80 -238 -135 -301q-82 -94 -234 -95q-55 0 -102 17v149q41 -14 94 -14q96 0 156 78q47 61 67 151z" />
<glyph unicode="&#x424;" horiz-adv-x="1400" d="M90 723q0 123 43 230.5t115 172.5q125 117 346 117h22v201h168v-201h23q217 0 346 -117q72 -66 115 -173t43 -230q0 -100 -32 -203.5t-89 -167.5q-133 -143 -406 -141v-231h-168v231q-276 -2 -405 141q-57 63 -89 167t-32 204zM262 709q0 -219 139 -308q87 -55 222 -51 v754h-21q-162 0 -244 -84q-96 -98 -96 -311zM778 350q135 -4 221 51q139 90 140 312q0 207 -97 307q-82 84 -243 84h-21v-754z" />
<glyph unicode="&#x425;" horiz-adv-x="901" d="M-14 0l366 735l-319 670h188l232 -516l262 516h155l-323 -641l368 -764h-200l-266 602l-304 -602h-159z" />
<glyph unicode="&#x426;" horiz-adv-x="1116" d="M152 0v1405h172v-1253h469v1253h172v-1253h131v-467h-160v315h-784z" />
<glyph unicode="&#x427;" horiz-adv-x="1089" d="M111 948v457h172v-418q0 -59 2 -89t19.5 -67.5t49.5 -58.5q45 -27 148 -27q137 0 264 39v621h172v-1405h-172v633q-168 -39 -299 -39q-158 0 -246 68q-111 84 -110 286z" />
<glyph unicode="&#x428;" horiz-adv-x="1581" d="M152 0v1405h172v-1262h381v1262h172v-1262h380v1262h173v-1405h-1278z" />
<glyph unicode="&#x429;" horiz-adv-x="1585" d="M152 0v1405h172v-1262h381v1262h172v-1262h380v1262h173v-1253h135v-467h-164v315h-1249z" />
<glyph unicode="&#x42a;" horiz-adv-x="1284" d="M-20 1262v143h538v-576h293q92 0 159.5 -20.5t133.5 -85.5q106 -111 106 -305q0 -205 -106.5 -311.5t-292.5 -106.5h-465v1262h-366zM518 143h270q115 0 178.5 63.5t63.5 207.5q0 145 -63.5 208.5t-178.5 63.5h-270v-543z" />
<glyph unicode="&#x42b;" horiz-adv-x="1421" d="M152 0v1405h163v-576h271q92 0 159.5 -20.5t133.5 -85.5q106 -111 106 -305q0 -205 -106.5 -311.5t-292.5 -106.5h-434zM315 143h260q115 0 178.5 63.5t63.5 207.5q0 145 -63.5 208.5t-178.5 63.5h-260v-543zM1106 0v1405h164v-1405h-164z" />
<glyph unicode="&#x42c;" horiz-adv-x="1089" d="M152 0v1405h172v-576h292q92 0 160 -20.5t133 -85.5q106 -111 107 -305q0 -205 -106.5 -311.5t-293.5 -106.5h-464zM324 143h270q115 0 178.5 63.5t63.5 207.5q0 145 -63.5 208.5t-178.5 63.5h-270v-543z" />
<glyph unicode="&#x42d;" horiz-adv-x="1112" d="M70 389l174 27q8 -113 47 -183q68 -119 223 -118q203 0 279 202q49 131 49 342h-475v144h471q0 223 -72 348q-78 139 -234 139q-135 0 -215 -108q-53 -76 -69 -195l-166 23q23 166 125 284q121 139 340 140q205 0 321 -146q150 -186 150 -565q0 -301 -96 -500 q-68 -137 -168.5 -194.5t-247.5 -57.5q-211 0 -318 115q-49 53 -80.5 138t-37.5 165z" />
<glyph unicode="&#x42e;" horiz-adv-x="1593" d="M152 0v1405h163v-594h217q4 137 51.5 278.5t118.5 217.5q117 127 313.5 127t317.5 -134q166 -184 166 -598q0 -422 -166 -598q-127 -133 -317.5 -133t-313.5 127q-80 82 -128 247t-44 314h-215v-659h-163zM696 702q0 -209 43 -356q72 -231 273 -231q197 0 268 231 q43 133 43 356q0 213 -43 357q-71 231 -268 231q-201 0 -273 -231q-43 -145 -43 -357z" />
<glyph unicode="&#x42f;" horiz-adv-x="1085" d="M61 0l287 639q-98 33 -164 113q-88 109 -88 276q0 147 88 248q113 129 342 129h408v-1405h-172v608h-254l-260 -608h-187zM268 1026q0 -125 47 -188q61 -86 236 -86h211v510h-225q-154 0 -222 -84q-47 -57 -47 -152z" />
<glyph unicode="&#x430;" horiz-adv-x="976" d="M86 281q0 133 80 235q106 133 360 133q66 0 156 -8v45q0 125 -41 184q-51 74 -160 74q-84 0 -137 -49q-51 -47 -63 -119l-156 29q14 96 98 172q109 94 266 94q137 0 226 -57q43 -31 69.5 -69t35.5 -96t11.5 -91t2.5 -113v-309q0 -266 20 -336h-149q-8 90 -11 184 q-39 -76 -84 -125q-82 -88 -209 -88q-160 0 -243 99q-72 86 -72 211zM248 281q0 -88 51 -138q47 -45 127 -45q133 0 209 135q65 117 47 285q-61 12 -123 12q-174 0 -246 -71q-66 -66 -65 -178z" />
<glyph unicode="&#x431;" horiz-adv-x="978" d="M88 584q0 123 24.5 273.5t61.5 232.5q51 115 142.5 173t234.5 95q39 10 293 67v-147q-88 -23 -153.5 -37t-137.5 -33q-100 -25 -154 -51q-59 -31 -100 -74q-39 -45 -67.5 -132t-36.5 -165h4q27 72 73 121q94 98 246 99q164 0 254 -99q57 -59 88 -167.5t31 -223.5 q0 -240 -96 -385q-104 -160 -308 -160q-170 0 -274 127q-125 150 -125 486zM256 508q0 -213 70 -315q66 -94 170 -95q100 0 157 92q70 111 70 308q0 205 -64 299q-52 82 -163 82q-109 0 -170 -86q-70 -96 -70 -285z" />
<glyph unicode="&#x432;" horiz-adv-x="958" d="M141 0v1044h369q150 0 221 -45q104 -68 105 -202q0 -104 -64 -172q-49 -49 -121 -66v-4q100 -20 158 -80q61 -66 61 -182q0 -143 -79 -221q-74 -72 -226 -72h-424zM297 127h217q98 0 152 49q45 45 45 121q0 98 -60 143q-53 41 -151 41h-203v-354zM297 608h197 q94 0 145 51q41 45 41 117q0 63 -45 105q-41 37 -127 37h-211v-310z" />
<glyph unicode="&#x433;" horiz-adv-x="741" d="M141 0v1044h578v-126h-422v-918h-156z" />
<glyph unicode="&#x434;" horiz-adv-x="954" d="M8 127h82q59 100 94 199q74 205 82 618l2 100h541v-917h106v-422h-143v295h-620v-295h-144v422zM252 127h393v791h-237l-2 -56q-4 -131 -21 -262q-23 -174 -72 -321q-29 -82 -61 -152z" />
<glyph unicode="&#x435;" horiz-adv-x="937" d="M88 506q0 291 129 440q106 125 266 125q205 0 305 -176q76 -131 76 -393h-616q4 -242 94 -338q61 -66 149.5 -66t145.5 66q43 47 70 143l141 -31q-20 -131 -114.5 -218t-244.5 -87q-160 0 -258 95q-143 135 -143 440zM256 629h436q8 182 -86 266q-55 49 -127 49 q-80 0 -135 -59q-37 -41 -61.5 -117t-26.5 -139z" />
<glyph unicode="&#x436;" horiz-adv-x="1183" d="M41 0v119q57 -23 80 41q10 27 16 101.5t15 109.5q12 66 45 104q45 51 108 64v4q-51 14 -90 53q-33 35 -45 102q-8 49 -16 121q-4 53 -27 82q-27 31 -68 25v118q27 6 56 7q100 0 145 -84q20 -37 35 -166q14 -135 57 -168q37 -31 125 -31h43v442h144v-442h43q88 0 124 31 q43 33 58 168q14 129 35 166q45 84 145 84q29 0 55 -7v-118q-41 6 -67 -25q-23 -29 -27 -82q-8 -72 -16 -121q-12 -68 -45 -102q-39 -39 -90 -53v-4q63 -12 108 -64q33 -39 45 -104q8 -35 14.5 -110t16.5 -101q23 -63 80 -41v-119q-82 -20 -150 16q-74 41 -90 174 q-2 29 -6 73t-6 61q-8 88 -45 118q-37 33 -127 33h-55v-475h-144v475h-55q-90 0 -127 -33q-37 -31 -45 -118q-2 -16 -6 -60.5t-6 -73.5q-16 -133 -91 -174q-68 -37 -149 -16z" />
<glyph unicode="&#x437;" horiz-adv-x="876" d="M61 289l160 20q4 -80 41 -133q55 -78 166 -78q88 0 139 45q61 53 62 158q0 72 -45 119q-59 59 -176 59h-115v127h115q82 0 124 25q80 43 80 143q0 78 -49 123q-51 47 -139 47q-94 0 -148 -67q-39 -49 -47 -129l-151 22q25 178 164 256q82 45 200 45q135 0 217 -59 q51 -35 82 -98.5t31 -133.5q0 -100 -63 -164q-49 -51 -134 -63v-4q94 -10 156 -80q57 -66 57 -166q0 -172 -116 -260q-94 -72 -256 -72q-174 0 -264 97q-78 84 -91 221z" />
<glyph unicode="&#x438;" horiz-adv-x="1015" d="M141 0v1044h156v-626q0 -20 -6 -144l98 162l330 518v90h155v-1044h-155v616q0 84 8 150l-18 -31q0 -2 -4.5 -8t-4.5 -8q-12 -18 -33.5 -48t-33.5 -50l-336 -521v-100h-156z" />
<glyph unicode="&#x439;" horiz-adv-x="1015" d="M141 0v1044h156v-626q0 -20 -6 -144l98 162l330 518v90h155v-1044h-155v616q0 84 8 150q-18 -29 -47 -73t-47 -72l-336 -521v-100h-156zM238 1427h143q0 -74 41 -110q37 -37 98 -37q66 0 103 37q40 40 36 110h144q-6 -143 -113 -210q-78 -47 -170 -48q-98 0 -172 48 q-111 72 -110 210z" />
<glyph unicode="&#x43a;" horiz-adv-x="894" d="M141 0v1044h156v-442h100q104 0 146 33q12 10 20 22.5t12.5 22.5t8.5 30.5t5 30t3 36t2 34.5q12 102 39 154q45 86 145 86q29 0 53 -7v-118q-43 12 -71 -29q-12 -18 -23 -76q-4 -31 -7 -57.5t-5 -39.5l-4 -26q-12 -72 -51 -108q-41 -37 -97 -47v-4q80 -12 129 -68 q35 -41 46 -111q2 -10 3 -24t4 -45t7 -70q6 -59 22 -80q31 -39 70 -22v-119q-23 -6 -43 -6q-61 0 -109 24q-78 41 -88 172l-6 66l-6 68q-8 92 -53 122q-39 29 -148 29h-104v-475h-156z" />
<glyph unicode="&#x43b;" horiz-adv-x="927" d="M0 0v127q51 -2 97 29.5t71 79.5q43 84 57 321q6 80 13 371l2 116h546v-1044h-155v918h-254q-8 -207 -17 -345q-16 -262 -49 -354q-76 -223 -311 -219z" />
<glyph unicode="&#x43c;" horiz-adv-x="1228" d="M141 0v1044h213l262 -798l263 798h208v-1044h-147v725q0 37 1 57.5t3 48t4 66.5q-14 -37 -67 -199l-234 -698h-72l-243 698q-55 162 -72 201q8 -152 8 -176v-723h-127z" />
<glyph unicode="&#x43d;" horiz-adv-x="999" d="M141 0v1044h156v-436h405v436h156v-1044h-156v481h-405v-481h-156z" />
<glyph unicode="&#x43e;" horiz-adv-x="972" d="M88 522q0 135 35 256t100 189q100 104 266 104q152 0 248 -90q147 -135 147.5 -458.5t-147.5 -459.5q-100 -92 -248 -92q-166 0 -266 105q-66 68 -100.5 189.5t-34.5 256.5zM256 522q0 -166 39 -268q59 -156 192.5 -156t190.5 156q39 102 39 268q0 160 -39 264 q-55 158 -192.5 158t-190.5 -158q-39 -104 -39 -264z" />
<glyph unicode="&#x43f;" horiz-adv-x="962" d="M141 0v1044h680v-1044h-155v918h-369v-918h-156z" />
<glyph unicode="&#x440;" horiz-adv-x="1011" d="M141 -354v1398h144v-184q35 94 98 148q68 55 174 55q143 0 234 -100q133 -145 133 -439q0 -131 -38 -266t-120 -207q-84 -74 -209 -74q-98 0 -160 43q-59 41 -100 115v-489h-156zM297 444q0 -106 19.5 -168.5t66.5 -109.5q61 -61 141 -62q78 0 133 60q98 109 99 362 q0 238 -88 342q-55 68 -142 68q-88 0 -151 -74q-49 -55 -63.5 -113.5t-14.5 -150.5v-154z" />
<glyph unicode="&#x441;" horiz-adv-x="878" d="M88 508q0 152 22.5 260.5t100.5 194.5q98 109 262 108q160 0 246 -98t98 -254l-151 -31q-31 158 -70 203q-49 53 -127 53q-47 0 -82 -16.5t-55.5 -45t-29.5 -51t-17 -53.5q-29 -111 -29 -272q0 -193 35 -275q57 -133 182 -133q82 0 129 60q45 53 64 196l151 -18 q-8 -164 -86 -256q-94 -109 -274 -109q-160 0 -260 125q-49 61 -76 145.5t-30 134.5t-3 132z" />
<glyph unicode="&#x442;" horiz-adv-x="688" d="M0 918v126h688v-126h-266v-918h-156v918h-266z" />
<glyph unicode="&#x443;" horiz-adv-x="761" d="M23 1044h163l213 -776l232 776h151l-358 -1150q-45 -141 -88 -193q-68 -76 -184 -76q-59 0 -111 10v134q33 -8 68 -9q53 0 84.5 14.5t56.5 57.5q29 47 69 203z" />
<glyph unicode="&#x444;" horiz-adv-x="1200" d="M88 524q0 279 135 410q115 111 289 110h10v361h156v-361h10q174 0 289 -110q135 -131 135 -410q0 -266 -113 -397q-109 -127 -321 -127v-340h-156v340q-213 0 -321 127q-113 131 -113 397zM248 522q0 -250 92 -342q61 -61 174 -61h14v807h-6q-119 0 -184 -62 q-90 -88 -90 -342zM672 119h14q113 0 174 61q92 92 92 342q0 254 -90 342q-66 61 -184 62h-6v-807z" />
<glyph unicode="&#x445;" horiz-adv-x="757" d="M-6 0l293 549l-267 495h177l184 -354l178 354h160l-260 -481l305 -563h-176l-219 416l-215 -416h-160z" />
<glyph unicode="&#x446;" horiz-adv-x="976" d="M141 0v1044h156v-917h360v917h156v-917h123v-422h-143v295h-652z" />
<glyph unicode="&#x447;" horiz-adv-x="915" d="M100 780v264h156v-288q0 -125 27 -166q35 -51 153 -51q88 0 182 26v479h156v-1044h-156v440q-111 -29 -206 -28q-160 0 -234 71q-49 47 -63.5 115t-14.5 182z" />
<glyph unicode="&#x448;" horiz-adv-x="1290" d="M141 0v1044h156v-917h270v917h156v-917h270v917h156v-1044h-1008z" />
<glyph unicode="&#x449;" horiz-adv-x="1312" d="M141 0v1044h156v-917h270v917h156v-917h270v917h156v-917h123v-422h-144v295h-987z" />
<glyph unicode="&#x44a;" horiz-adv-x="993" d="M-10 918v126h418v-411h184q176 0 258 -80q82 -82 82 -229q0 -164 -103 -252q-82 -72 -211 -72h-366v918h-262zM408 127h157q98 0 148 43q59 53 59 152q0 104 -67 149q-47 35 -134 35h-163v-379z" />
<glyph unicode="&#x44b;" horiz-adv-x="1204" d="M141 0v1044h156v-411h172q176 0 258 -80q82 -78 82 -234q0 -160 -102 -247q-84 -72 -211 -72h-355zM297 127h145q102 0 150 43q57 49 57 152q0 104 -67 149q-47 35 -133 35h-152v-379zM907 0v1044h156v-1044h-156z" />
<glyph unicode="&#x44c;" horiz-adv-x="882" d="M141 0v1044h156v-411h184q176 0 258 -80q82 -82 82 -229q0 -164 -102 -252q-82 -72 -211 -72h-367zM297 127h158q98 0 147 43q59 53 60 152q0 104 -68 149q-47 35 -133 35h-164v-379z" />
<glyph unicode="&#x44d;" horiz-adv-x="917" d="M61 289l156 22q4 -86 51 -145q53 -68 154 -68q139 0 199 123q39 84 41 262h-334v127h334q0 127 -41 211q-59 123 -191 123q-123 0 -174 -94q-23 -39 -33 -109l-151 23q25 143 118 223q100 84 254 84q174 0 277 -131q109 -141 108 -412q0 -244 -92 -393 q-106 -164 -313 -164q-162 0 -250 76q-104 88 -113 242z" />
<glyph unicode="&#x44e;" horiz-adv-x="1325" d="M141 0v1044h156v-440h166q4 94 36.5 197.5t90.5 165.5q98 104 260 104q147 0 242 -90q145 -141 145 -459q0 -319 -145 -459q-100 -92 -242 -92q-160 0 -258 105q-66 70 -99.5 185.5t-31.5 215.5h-164v-477h-156zM618 522q0 -166 39 -268q55 -156 191 -156q129 0 186 156 q39 109 39 268q0 154 -39 264q-55 158 -188 158t-189 -158q-39 -111 -39 -264z" />
<glyph unicode="&#x44f;" horiz-adv-x="931" d="M61 0l220 465q-63 20 -111 63q-86 80 -86 217q0 182 135 256q78 43 215 43h357v-1044h-156v438h-199l-196 -438h-179zM244 735q0 -86 49 -127q49 -43 188 -43h154v353h-143q-55 0 -80 -1.5t-65 -13.5t-62 -39q-41 -47 -41 -129z" />
<glyph unicode="&#x451;" horiz-adv-x="937" d="M88 504q0 293 129 442q106 125 266 125q205 0 305 -176q76 -131 76 -393h-616q4 -242 94 -338q61 -66 150 -66q86 0 145 66q41 45 70 143l141 -31q-20 -119 -100 -202q-100 -102 -263 -103q-156 0 -254 95q-143 139 -143 438zM236 1227v182h165v-182h-165zM256 629h436 q8 182 -86 266q-55 49 -127 49q-80 0 -135 -59q-37 -41 -61.5 -117t-26.5 -139zM598 1227v182h166v-182h-166z" />
<glyph unicode="&#x452;" horiz-adv-x="974" d="M4 1151v117h131v143h156v-143h327v-117h-327v-317q35 88 106.5 140t163.5 52q131 0 205 -92q68 -86 68 -283v-585q0 -219 -56 -308q-74 -117 -227 -116q-55 0 -127 18v133q55 -16 113 -16q94 0 122 82q18 49 19 211v542q0 156 -31 215q-41 72 -123 72q-70 0 -125 -51 q-49 -47 -78.5 -141.5t-29.5 -186.5v-520h-156v1151h-131z" />
<glyph unicode="&#x453;" horiz-adv-x="741" d="M141 0v1044h578v-126h-422v-918h-156zM272 1278l334 233l99 -125l-367 -188z" />
<glyph unicode="&#x454;" horiz-adv-x="913" d="M88 528q0 268 109 412q100 131 272 131q156 0 254 -84q90 -78 123 -223l-148 -23q-25 88 -39 111q-53 92 -172 92q-131 0 -190 -123q-41 -84 -41 -211h334v-127h-334q-6 -164 41 -262q59 -123 197 -123q98 0 151 66q43 53 51 139l156 -22q-27 -152 -125 -234 q-90 -76 -233 -76q-207 0 -314 162q-92 139 -92 395z" />
<glyph unicode="&#x455;" horiz-adv-x="827" d="M37 268l141 33q10 -76 55 -127q66 -76 179 -76q96 0 155 52q63 55 64 129q0 68 -60 110q-47 33 -172 72q-10 4 -46 14t-53 16.5t-46 17.5t-50.5 24.5t-39.5 29.5q-90 78 -90 199q0 139 96 225q94 84 246 84q154 0 246 -104q60 -68 83 -160l-137 -37q-18 66 -55 107 q-57 68 -152 67q-82 0 -131 -49q-45 -43 -45 -111q0 -72 58 -114q12 -10 30.5 -18.5t32.5 -12.5t55 -16.5t66 -20.5q154 -47 215 -94q104 -78 104 -223q0 -139 -108 -230q-102 -84 -270 -84q-178 0 -275 95q-78 76 -96 202z" />
<glyph unicode="&#x456;" horiz-adv-x="438" d="M135 1227v182h168v-182h-168zM141 0v1044h156v-1044h-156z" />
<glyph unicode="&#x457;" horiz-adv-x="458" d="M25 1227v182h147v-182h-147zM152 0v1044h155v-1044h-155zM287 1227v182h147v-182h-147z" />
<glyph unicode="&#x458;" horiz-adv-x="434" d="M-88 -225q80 -14 113 -15q61 0 88 41q8 12 13 27.5t7 30t3 41t1 41v49.5v51v1003h156v-1003v-48v-55.5t-2 -49.5t-7 -54t-12.5 -45t-19.5 -49.5t-29 -38.5q-63 -70 -188 -70q-70 0 -123 15v129zM131 1227v182h168v-182h-168z" />
<glyph unicode="&#x459;" horiz-adv-x="1372" d="M0 0v127q51 -2 97 29.5t71 79.5q43 84 57 321q6 80 13 371l2 116h546v-411h185q176 0 258 -80q82 -82 82 -229q0 -164 -103 -252q-82 -72 -211 -72h-366v918h-254q-8 -207 -17 -345q-16 -262 -49 -354q-76 -223 -311 -219zM786 127h158q98 0 148 43q59 53 59 152 q0 104 -68 149q-47 35 -133 35h-164v-379z" />
<glyph unicode="&#x45a;" horiz-adv-x="1443" d="M141 0v1044h156v-423h405v423h156v-423h184q176 0 258 -80q82 -82 82 -222q0 -166 -102 -251q-80 -68 -211 -68h-367v494h-405v-494h-156zM858 127h158q98 0 147 39q59 47 60 151q0 96 -68 142q-49 35 -133 35h-164v-367z" />
<glyph unicode="&#x45b;" horiz-adv-x="974" d="M4 1151v117h131v143h156v-143h327v-117h-327v-309q35 92 96 139q63 49 168 49q131 0 205 -82q16 -16 27.5 -36.5t19.5 -38t13 -43t8 -41t4.5 -46t1.5 -43v-48.5v-46v-606h-156v606q0 195 -49 248q-43 49 -123 49q-78 0 -135 -72q-80 -100 -80 -327v-504h-156v1151h-131z " />
<glyph unicode="&#x45c;" horiz-adv-x="894" d="M141 0v1044h156v-442h100q104 0 146 33q12 10 20 22.5t12.5 22.5t8.5 30.5t5 30t3 36t2 34.5q12 102 39 154q45 86 145 86q29 0 53 -7v-118q-43 12 -71 -29q-12 -18 -23 -76q-4 -31 -7 -57.5t-5 -39.5l-4 -26q-12 -72 -51 -108q-41 -37 -97 -47v-4q80 -12 129 -68 q35 -41 46 -111q2 -10 3 -24t4 -45t7 -70q6 -59 22 -80q31 -39 70 -22v-119q-23 -6 -43 -6q-61 0 -109 24q-78 41 -88 172l-6 66l-6 68q-8 92 -53 122q-39 29 -148 29h-104v-475h-156zM317 1278l334 233l99 -125l-367 -188z" />
<glyph unicode="&#x45e;" horiz-adv-x="761" d="M23 1044h163l213 -776l232 776h151l-358 -1150q-45 -141 -88 -193q-68 -76 -184 -76q-59 0 -111 10v134q33 -8 68 -9q53 0 84.5 14.5t56.5 57.5q29 47 69 203zM141 1427h144q0 -74 41 -110q37 -37 98 -37q66 0 102 37q41 40 37 110h144q-6 -143 -113 -210 q-78 -47 -170 -48q-98 0 -172 48q-111 72 -111 210z" />
<glyph unicode="&#x45f;" horiz-adv-x="954" d="M141 0v1044h156v-917h360v917h156v-1044h-264v-287h-143v287h-265z" />
<glyph unicode="&#x490;" horiz-adv-x="962" d="M152 0v1405h610v242h160v-385h-598v-1262h-172z" />
<glyph unicode="&#x491;" horiz-adv-x="765" d="M166 0v1044h434v246h143v-372h-421v-918h-156z" />
<glyph unicode="&#x2000;" horiz-adv-x="907" />
<glyph unicode="&#x2001;" horiz-adv-x="1815" />
<glyph unicode="&#x2002;" horiz-adv-x="907" />
<glyph unicode="&#x2003;" horiz-adv-x="1815" />
<glyph unicode="&#x2004;" horiz-adv-x="605" />
<glyph unicode="&#x2005;" horiz-adv-x="453" />
<glyph unicode="&#x2006;" horiz-adv-x="302" />
<glyph unicode="&#x2007;" horiz-adv-x="302" />
<glyph unicode="&#x2008;" horiz-adv-x="226" />
<glyph unicode="&#x2009;" horiz-adv-x="363" />
<glyph unicode="&#x200a;" horiz-adv-x="100" />
<glyph unicode="&#x2010;" horiz-adv-x="614" d="M74 459v127h467v-127h-467z" />
<glyph unicode="&#x2011;" horiz-adv-x="614" d="M74 459v127h467v-127h-467z" />
<glyph unicode="&#x2012;" horiz-adv-x="614" d="M74 459v127h467v-127h-467z" />
<glyph unicode="&#x2013;" horiz-adv-x="831" d="M68 459v127h696v-127h-696z" />
<glyph unicode="&#x2014;" horiz-adv-x="1294" d="M68 459v127h1159v-127h-1159z" />
<glyph unicode="&#x2018;" horiz-adv-x="434" d="M102 967v209l138 254h92l-123 -244h86v-219h-193z" />
<glyph unicode="&#x2019;" horiz-adv-x="399" d="M66 944l124 240h-86v221h193v-209l-137 -252h-94z" />
<glyph unicode="&#x201c;" horiz-adv-x="720" d="M102 967v209l136 254h92l-121 -244h86v-219h-193zM389 967v209l135 254h94l-122 -244h86v-219h-193z" />
<glyph unicode="&#x201d;" horiz-adv-x="720" d="M102 944l123 240h-86v221h191v-209l-133 -252h-95zM389 944l123 240h-86v221h192v-209l-135 -252h-94z" />
<glyph unicode="&#x201e;" horiz-adv-x="720" d="M102 -242l123 242h-86v221h191v-209l-133 -254h-95zM389 -242l123 242h-86v221h192v-209l-135 -254h-94z" />
<glyph unicode="&#x2020;" d="M145 858v133h326v414h141v-414h326v-133h-326v-1210h-141v1210h-326z" />
<glyph unicode="&#x2022;" horiz-adv-x="1421" d="M422 717q0 123 86 209q82 86 205 86q121 0 202 -86q84 -88 84 -209t-84 -209q-86 -86 -202 -86q-119 0 -205 86t-86 209z" />
<glyph unicode="&#x2026;" horiz-adv-x="1947" d="M233 0v223h189v-223h-189zM881 0v223h186v-223h-186zM1526 0v223h188v-223h-188z" />
<glyph unicode="&#x202f;" horiz-adv-x="363" />
<glyph unicode="&#x205f;" horiz-adv-x="453" />
<glyph unicode="&#x20ac;" horiz-adv-x="1081" d="M25 512l41 123h108q-2 23 -2 78q0 53 2 84h-149l43 123h118q8 100 50.5 213.5t109.5 183.5q115 117 299 117q119 0 252 -54q86 -35 168 -98l-53 -141q-106 78 -176 110q-113 53 -195 54q-174 0 -250 -207q-37 -102 -37 -178h576l-43 -123h-543q-2 -29 -2 -84q0 -53 2 -78 h483l-45 -123h-430q8 -102 39 -195q68 -217 258 -217q72 0 127 19q152 49 252 155v-178q-45 -39 -156 -84q-98 -41 -229 -41q-207 0 -324 142q-115 137 -137 399h-157z" />
<glyph unicode="&#x2122;" horiz-adv-x="1417" d="M20 1303v102h512v-102h-192v-715h-127v715h-193zM616 588v817h160l199 -608l188 608h158v-817h-115v649l-211 -649h-73l-203 639v-639h-103z" />
<glyph unicode="&#x221a;" horiz-adv-x="1404" d="M0 637v129h287l82 -281q2 -6 5 -22.5t5 -22.5q2 -14 10 -42.5t10 -43.5q6 -20 14.5 -61t12.5 -62q0 -6 4 -17t4 -17h10q10 55 41 182l56 223q16 63 50 177t44 153l231 815h539v-131h-418l-465 -1616h-170l-180 637h-172z" />
<glyph unicode="&#x221e;" horiz-adv-x="1404" d="M39 719q0 141 89 229t234 88q129 0 248 -112q55 -51 90 -111q53 76 78 100q123 127 273 127q115 0 214 -79.5t99 -245.5q0 -154 -93 -237t-227 -83q-141 0 -260 125q-38 42 -79 103q-47 -74 -97 -121q-113 -104 -260 -105q-131 0 -220 88t-89 234zM178 715 q0 -88 54.5 -142.5t132.5 -54.5q111 0 206 115q39 45 62 84q-29 51 -68 94q-94 106 -194 107q-82 0 -137.5 -56.5t-55.5 -146.5zM772 719q29 -51 68 -94q94 -106 202 -107q76 0 130.5 53.5t54.5 143.5q0 92 -56.5 147.5t-134.5 55.5q-104 0 -202 -115q-42 -49 -62 -84z" />
<glyph unicode="&#x2248;" horiz-adv-x="1077" d="M27 780q49 106 104 162q76 76 193 76q66 0 141 -35l168 -78q74 -33 121 -33q76 0 129 54q23 18 69 96l86 -51q-33 -59 -45 -81t-37.5 -50.5t-60.5 -51.5q-74 -47 -154 -47q-74 0 -172 45l-123 58q-88 39 -147 39q-63 0 -119 -56q-26 -26 -69 -100zM33 444q61 117 104 160 q76 78 185 78q70 0 151 -37l148 -70q74 -37 145 -36q70 0 123 51q43 39 69 96l86 -51q-49 -117 -143 -182q-78 -51 -145 -52q-72 0 -181 50l-122 55q-96 43 -138 43q-76 0 -131 -60q-24 -24 -67 -100z" />
<glyph unicode="&#x2260;" d="M111 516v129h331l54 115h-385v129h446l109 231l116 -55l-84 -176h275v-129h-334l-53 -115h387v-129h-449l-106 -231l-119 55l84 176h-272z" />
<glyph unicode="&#x2264;" horiz-adv-x="1079" d="M84 135v131h911v-131h-911zM84 737v121l911 412v-133l-762 -338l762 -336v-133z" />
<glyph unicode="&#x2265;" horiz-adv-x="1079" d="M84 135v131h911v-131h-911zM84 330v133l762 336l-762 338v133l911 -412v-123z" />
<glyph unicode="&#x25fc;" horiz-adv-x="1044" d="M0 0v1044h1044v-1044h-1044z" />
</font>
</defs>
</svg>
