<?xml version="1.0" standalone="no"?>
<!DOCTYPE svg PUBLIC "-//W3C//DTD SVG 1.1//EN" "http://www.w3.org/Graphics/SVG/1.1/DTD/svg11.dtd" >
<svg xmlns="http://www.w3.org/2000/svg">
<metadata></metadata>
<defs>
<font id="franklingothicbookxcmpBkxcmpc" horiz-adv-x="684" >
<font-face units-per-em="2048" ascent="1665" descent="-383" />
<missing-glyph horiz-adv-x="477" />
<glyph horiz-adv-x="2048" />
<glyph horiz-adv-x="2048" />
<glyph unicode="&#xd;" horiz-adv-x="681" />
<glyph unicode=" "  horiz-adv-x="477" />
<glyph unicode="&#x09;" horiz-adv-x="477" />
<glyph unicode="&#xa0;" horiz-adv-x="477" />
<glyph unicode="!" horiz-adv-x="473" d="M154 1405h161l-26 -1053h-109zM158 2v219h161v-219h-161z" />
<glyph unicode="&#x22;" horiz-adv-x="688" d="M152 1405h135l-17 -588h-104zM399 1405h138l-17 -588h-102z" />
<glyph unicode="#" d="M18 449l11 114h123l34 309h-123l13 117h121l45 414h110l-45 -414h137l45 414h109l-43 -414h111l-11 -117h-114l-33 -309h113l-11 -114h-116l-48 -449h-110l49 449h-137l-49 -449h-109l49 449h-121zM262 563h135l35 309h-139z" />
<glyph unicode="$" d="M78 352l123 19q4 -90 37 -150q35 -66 98 -65q70 0 104 65q29 53 29 160q0 127 -57 201q-20 25 -51 49t-67 49t-48 35q-143 119 -144 327q0 154 58 240q49 74 135 100v154h90v-152q76 -14 129 -73q59 -68 74 -211l-125 -25q-12 100 -45 146q-31 39 -76 39q-53 0 -80 -43 q-29 -49 -29 -140q0 -147 115 -248q29 -25 83 -65.5t81 -69.5q94 -102 94 -280q0 -184 -65 -281q-61 -82 -152 -100v-185h-90v183q-86 10 -137 67q-39 43 -61.5 115t-22.5 139z" />
<glyph unicode="%" horiz-adv-x="1150" d="M51 985q0 160 13.5 247t56.5 134q49 53 133 53t133 -53q43 -47 56.5 -134t13.5 -247t-13.5 -247t-56.5 -134q-49 -53 -133 -53t-133 53q-43 47 -56.5 134t-13.5 247zM170 985.5q0 -190.5 14 -268.5q14 -74 69.5 -74t70.5 74q14 78 14 268.5t-14 267.5q-14 74 -69.5 74 t-70.5 -74q-14 -77 -14 -267.5zM324 0l415 1403h90l-419 -1403h-86zM694 426q0 160 13.5 247t56.5 134q49 53 133 53t133 -53q43 -47 56.5 -134t13.5 -247t-13.5 -247t-56.5 -134q-49 -53 -133 -53t-133 53q-43 47 -56.5 134t-13.5 247zM813 426q0 -188 14 -268 q14 -74 69.5 -74t70.5 74q14 80 14 268t-14 268q-14 74 -69.5 74t-70.5 -74q-14 -80 -14 -268z" />
<glyph unicode="&#x26;" horiz-adv-x="681" d="M31 367q0 197 80 329q16 31 88 121q-12 31 -27.5 64.5t-24.5 50.5q-57 133 -57 233q0 117 57.5 191t149.5 74q76 0 133 -58q74 -74 74 -196q0 -133 -90 -267q-39 -57 -78 -102l182 -459q20 57 31 125q6 33 18 203l119 -14q-8 -127 -37 -261q-23 -121 -67 -194 q8 -31 30.5 -58.5t46.5 -27.5q15 0 35 8v-129q-35 -14 -73 -14q-55 0 -91 32q-33 31 -43 60q-25 -33 -59 -58q-55 -39 -131 -38q-115 0 -184 86q-82 98 -82 299zM176 389q0 -158 43 -219q39 -53 96 -53q55 0 97 41q6 6 26 37l-196 514q-14 -23 -31 -70q-35 -113 -35 -250z M219 1159q0 -63 29 -145q14 -39 39 -94q23 29 51 79q45 86 45 154t-25 111q-20 37 -57 36.5t-57 -34.5q-25 -41 -25 -107z" />
<glyph unicode="'" horiz-adv-x="473" d="M166 1405h141l-18 -588h-111z" />
<glyph unicode="(" horiz-adv-x="471" d="M109 612q0 283 71 547q47 172 115 328h102q-68 -279 -71 -299q-66 -311 -66 -576q0 -254 62 -569q38 -190 79 -311h-102q-98 268 -104 288q-86 283 -86 592z" />
<glyph unicode=")" horiz-adv-x="473" d="M74 -268q41 121 80 311q61 315 61 569q0 264 -65 576q-4 20 -72 299h102q68 -156 115 -328q72 -264 72 -547q0 -309 -86 -592q-7 -20 -105 -288h-102z" />
<glyph unicode="*" horiz-adv-x="681" d="M70 1227l57 98l176 -123l-16 211h112l-16 -207l174 119l55 -96l-188 -94l188 -88l-55 -101l-174 123l16 -215h-112l14 213l-172 -121l-57 101l194 88z" />
<glyph unicode="+" d="M51 649v107h238v379h106v-379h238v-107h-238v-377l-106 -2v379h-238z" />
<glyph unicode="," horiz-adv-x="364" d="M102 0v213h160v-201l-88 -256h-72l64 244h-64z" />
<glyph unicode="-" horiz-adv-x="436" d="M72 471v127h293v-127h-293z" />
<glyph unicode="." horiz-adv-x="362" d="M98 0v227h166v-227h-166z" />
<glyph unicode="/" horiz-adv-x="536" d="M-57 -352l456 1757h105l-457 -1757h-104z" />
<glyph unicode="0" d="M63 702.5q0 176.5 3.5 261.5t26 199.5t69.5 173.5q69 86 180 86t180 -86q47 -59 69.5 -173.5t26 -199.5t3.5 -261.5t-3.5 -261.5t-26 -199.5t-69.5 -173.5q-70 -86 -180.5 -86t-179.5 86q-47 59 -69.5 173.5t-26 199.5t-3.5 261.5zM211 702.5q0 -464.5 47 -538.5 q31 -47 84 -47t84 47q47 74 47 538.5t-47 538.5q-31 47 -84 47t-84 -47q-47 -74 -47 -538.5z" />
<glyph unicode="1" horiz-adv-x="688" d="M137 0v129h180v1038q-27 -68 -163 -145v147q59 31 125 117q53 70 77 135h95v-1292h176v-129h-490z" />
<glyph unicode="2" d="M47 1055q-4 68 15.5 144.5t58.5 125.5q76 96 205 96q115 0 186 -88q76 -96 76 -286q0 -236 -119 -492q-94 -205 -272 -426h387v-129h-521v145q178 219 285 486q86 223 86 416q0 125 -37 186q-29 49 -84 49q-63 0 -98 -57q-37 -61 -37 -189z" />
<glyph unicode="3" d="M35 289l131 35q0 -102 41 -154q33 -43 100 -43q147 0 148 256q0 150 -31 211q-16 35 -42 52.5t-43 19.5t-52 2h-68v135h68q29 0 43 2t37.5 21.5t38.5 58.5q20 51 20 170q0 131 -27 184q-29 53 -88 53q-55 0 -86 -47q-25 -41 -32 -117l-130 25q12 127 84 201q68 74 177 73 q119 0 186 -92q59 -80 59 -274q0 -162 -41 -236q-29 -51 -88 -77q92 -33 129 -142q33 -92 33 -215q0 -164 -67 -282q-80 -119 -224 -119q-125 0 -196 80q-72 82 -80 219z" />
<glyph unicode="4" d="M45 338v115l324 966h147v-950h102v-131h-102v-338h-135v338h-336zM164 469h225v739z" />
<glyph unicode="5" d="M86 283l141 30q6 -98 31 -141q27 -49 88 -49q66 0 103 80q37 84 36 260q0 195 -30 274q-29 76 -97 76q-76 0 -106 -70q-4 -8 -31 -116l-115 18l31 760h443l-9 -139h-313l-22 -424q23 51 59 76q45 33 108 32q98 0 158 -98q70 -123 70 -387q0 -260 -78 -373 q-72 -109 -207 -108q-125 0 -192 82q-64 78 -68 217z" />
<glyph unicode="6" d="M78 684q0 463 90 614q74 125 203 125q98 0 161 -71q76 -82 76 -211l-127 -27q-8 92 -39 137q-29 39 -67 39q-88 0 -123 -114q-18 -63 -27.5 -185.5t-5.5 -208.5q10 51 53 90q55 49 121 50q115 0 174 -111q68 -123 68 -358q0 -248 -76 -361q-70 -109 -205 -108 q-90 0 -139 39.5t-80 123.5q-57 150 -57 537zM229 449q0 -174 33 -250q35 -84 98.5 -84t98.5 84q33 78 33 250q0 193 -33 264q-35 76 -98.5 75.5t-98.5 -75.5q-33 -78 -33 -264z" />
<glyph unicode="7" d="M98 1266l11 139h503v-109q-92 -162 -157 -378q-106 -358 -107 -719q0 -117 12 -199h-157q-8 98 -8 174q0 377 139 764q68 188 151 328h-387z" />
<glyph unicode="8" d="M55 326q0 152 74 274q45 78 115 139q-61 55 -99 123q-55 100 -55 238q0 170 90 256q70 68 166 67q113 0 182 -73q72 -74 72 -222q0 -145 -70 -254q-39 -61 -88 -102q76 -76 113 -135q74 -121 74 -287q0 -193 -84 -284q-76 -82 -205 -82q-139 0 -209 86q-76 90 -76 256z M197 354q0 -125 36 -182q39 -66 109 -66q68 0 107 60q39 61 38 172q0 125 -63 225q-43 68 -96 107q-53 -53 -82 -105q-49 -84 -49 -211zM227 1100q0 -100 47 -176q39 -57 80 -86q43 41 68 80q51 80 51 200q0 84 -35 133q-35 47 -92 47q-49 0 -80 -41q-39 -51 -39 -157z" />
<glyph unicode="9" d="M49 938q0 252 76 369q74 117 207 116q109 0 180 -90q94 -123 94 -610q0 -279 -31 -444q-53 -295 -270 -295q-92 0 -149 65q-68 78 -78 199l129 24q6 -78 34.5 -118.5t75.5 -40.5q104 0 129 198q20 154 17 297q-16 -43 -60 -80q-47 -41 -112 -41q-111 0 -178 115 q-63 113 -64 336zM195 962.5q0 -200.5 30 -266.5q37 -78 105 -78q76 0 102 105q20 82 21 231q0 162 -33 248q-31 88 -101 88q-57 0 -90 -61q-34 -66 -34 -266.5z" />
<glyph unicode=":" horiz-adv-x="362" d="M98 0v229h166v-229h-166zM98 807v229h166v-229h-166z" />
<glyph unicode=";" horiz-adv-x="362" d="M98 807v229h166v-229h-166zM102 0v213h160v-201l-88 -256h-72l64 244h-64z" />
<glyph unicode="&#x3c;" d="M29 645v115l626 377v-133l-512 -302l512 -301v-133z" />
<glyph unicode="=" d="M51 522v117h582v-117h-582zM51 766v117h582v-117h-582z" />
<glyph unicode="&#x3e;" d="M29 268v133l512 301l-512 302v133l626 -377v-115z" />
<glyph unicode="?" horiz-adv-x="610" d="M39 1055q-4 70 15.5 149.5t56.5 126.5q74 90 198 90q123 0 191 -92q27 -35 40 -82t14 -73.5t1 -79.5q0 -207 -94 -332q-14 -18 -54 -59t-51 -66q-14 -31 -14 -121v-164h-141v158q0 141 41 209q16 25 49 58.5t59 74.5q59 88 60 240q0 121 -27 153q-31 41 -86 41 q-70 0 -100 -67q-27 -55 -27 -172zM195 0v211h161v-211h-161z" />
<glyph unicode="@" horiz-adv-x="864" d="M47 688q0 223 36 396t144 272q98 88 236 88q233 0 315 -289q43 -156 43 -340q0 -205 -41 -338q-27 -86 -70.5 -127t-95.5 -41q-47 0 -75 43q-16 20 -21 49q-4 -27 -22 -51q-35 -45 -99 -45q-72 0 -116 74q-47 78 -47.5 297t57.5 313q51 86 133 86q41 0 70.5 -23.5 t37.5 -60.5l7 80h84l-29 -461q-4 -49 -4 -143q0 -63 37 -64q41 0 65 78q31 109 31 316q0 231 -45 356q-31 86 -88.5 143.5t-134.5 57.5q-111 0 -183 -94q-123 -160 -122 -562q0 -387 112 -538q80 -109 213 -109q129 1 219 101l47 -80q-117 -111 -290 -111q-160 0 -265 123 q-139 164 -139 604zM352 674q0 -141 13 -207q12 -63 53 -64q55 0 67 134q7 73 7 122l6 211q0 53 -11 74q-16 39 -51 39q-55 0 -69 -96q-14 -100 -15 -213z" />
<glyph unicode="A" horiz-adv-x="610" d="M10 0l219 1405h146l225 -1405h-141l-64 416h-194l-62 -416h-129zM215 543h164l-47 350q-29 213 -37 324q-12 -184 -35 -326z" />
<glyph unicode="B" d="M106 0v1405h152q168 0 244 -66q94 -82 94 -288q0 -143 -43 -217q-41 -66 -109 -86q72 -20 121 -82q70 -88 70 -267q0 -203 -88 -303q-33 -37 -70 -58.5t-87 -28.5t-69.5 -8t-74.5 -1h-140zM252 133h37q100 0 143 49q53 59 53 226q0 154 -53 219q-41 49 -123 49h-57v-543z M252 805h49q80 0 119 51q41 55 41 178q0 145 -49 195q-35 43 -111 43h-49v-467z" />
<glyph unicode="C" horiz-adv-x="647" d="M78 698q0 492 110 633q70 88 193 88q139 0 209 -110q57 -90 61 -242l-145 -23q0 127 -39 187q-31 45 -86 45q-72 0 -105 -80q-40 -98 -40 -477v-19q0 -397 47 -499q37 -78 104 -78q57 0 88 49q33 48 33 159v13l135 -29q0 -147 -68 -239q-70 -94 -198 -94q-139 0 -211 118 q-88 147 -88 598z" />
<glyph unicode="D" horiz-adv-x="757" d="M106 0v1405h185q47 0 82 -6t82 -24.5t86 -63.5t67 -115q72 -172 72 -483q0 -315 -59 -488q-76 -225 -310 -225h-205zM254 133h65q129 0 175 168q32 116 32 412v18q0 233 -39 365q-47 176 -182 176h-51v-1139z" />
<glyph unicode="E" horiz-adv-x="614" d="M106 0v1403h459v-133h-309v-467h238v-137h-238v-533h326v-133h-476z" />
<glyph unicode="F" horiz-adv-x="540" d="M106 0v1405h449v-133h-299v-473h246v-140h-246v-659h-150z" />
<glyph unicode="G" horiz-adv-x="757" d="M78 688q0 424 59 563q72 168 244 168q137 0 207 -114q55 -92 59 -224l-135 -26q-10 133 -49 184q-33 41 -82 41q-74 0 -111 -82q-23 -49 -31 -149.5t-8 -354.5q0 -379 39 -473q41 -92 121 -92q74 0 111 82q26 57 26 195v10v157h-137v134h279v-713l-90 -2l-29 119 q-23 -53 -66 -84q-49 -37 -108 -37q-150 0 -221 125q-78 131 -78 573z" />
<glyph unicode="H" horiz-adv-x="755" d="M106 0v1405h148v-596h250v596h145v-1405h-145v676h-250v-676h-148z" />
<glyph unicode="I" horiz-adv-x="362" d="M106 0v1405h150v-1405h-150z" />
<glyph unicode="J" horiz-adv-x="432" d="M0 0v139h10q12 0 37 -2t39 -2q61 0 84 35q18 29 18 141v1094h150v-1061q0 -82 -2 -120t-19.5 -94t-52.5 -89q-57 -53 -155 -53q-66 0 -109 12z" />
<glyph unicode="K" horiz-adv-x="647" d="M106 0v1405h148v-623l250 623h141l-248 -592l285 -813h-154l-229 680l-45 -109v-571h-148z" />
<glyph unicode="L" horiz-adv-x="540" d="M106 0v1405h150v-1272h285v-133h-435z" />
<glyph unicode="M" horiz-adv-x="935" d="M98 0v1405h178l134 -731q33 -182 45 -297q16 -123 16 -129q6 109 61 418l127 739h179v-1405h-127v778q0 119 4 240q2 49 2 133q-10 -104 -58 -373l-133 -778h-127l-127 754q-41 231 -59 397q6 -129 6 -406v-745h-121z" />
<glyph unicode="N" horiz-adv-x="757" d="M109 0v1405h124l213 -748q66 -221 84 -305q0 70 -4 131q-4 72 -4 170v752h127v-1405h-121l-219 727q-78 260 -82 311q0 -45 4.5 -162.5t4.5 -150.5v-725h-127z" />
<glyph unicode="O" horiz-adv-x="761" d="M78 700.5q0 239.5 28 419.5q49 297 274.5 297t274.5 -297q29 -180 29 -419.5t-29 -419.5q-49 -297 -274 -297t-275 297q-28 180 -28 419.5zM236 702.5q0 -235.5 16 -389.5q22 -192 128.5 -192t129.5 192q18 143 18 389t-18 390q-23 193 -129 193l-1 -1q-106 0 -128 -192 q-16 -154 -16 -389.5z" />
<glyph unicode="P" horiz-adv-x="614" d="M106 0v1405h187q47 0 75.5 -3t71.5 -22.5t78 -58.5q92 -100 92 -346q0 -229 -86 -326q-74 -82 -200 -82h-68v-567h-150zM256 700h47q74 0 113 58q43 61 43 223q0 158 -39 223q-41 68 -113 68h-51v-572z" />
<glyph unicode="Q" horiz-adv-x="761" d="M78 700q0 240 28 420q49 297 274.5 297t274.5 -297q29 -180 29 -419.5t-29 -419.5q-39 -244 -192 -287q-14 -43 -14 -82q0 -55 18 -82q23 -33 68 -33q55 0 92 27v-125q-37 -27 -115 -27q-102 0 -156 72q-41 59 -41 147q0 59 9 97q-172 33 -218 293q-29 177 -29 411 q0 4 1 8zM236 702.5q0 -235.5 16 -389.5q22 -192 128.5 -192t129.5 192q18 143 18 389t-18 390q-23 193 -129 193l-1 -1q-106 0 -128 -192q-16 -154 -16 -389.5z" />
<glyph unicode="R" d="M106 0v1405h203q152 0 221 -66q96 -90 97 -329q0 -193 -47 -269q-31 -53 -93 -92l162 -649h-153l-150 616h-92v-616h-148zM254 750h70q72 0 106 38q45 45 45 228q0 176 -47 223q-33 33 -113 33h-61v-522z" />
<glyph unicode="S" horiz-adv-x="612" d="M2 324l139 20v-15q0 -93 45 -155q41 -57 109 -57q70 0 111 76q32 59 32 148v5q0 162 -69 248q-27 33 -123 102.5t-144 141.5q-72 111 -71 247q0 143 61 232q72 102 209 102q119 0 186 -80q76 -88 80 -223l-137 -26q-4 96 -49 153q-31 41 -82 41q-55 0 -88 -37 q-35 -43 -35 -121q0 -121 66 -204q29 -37 104 -95q92 -61 135 -112q111 -129 111 -326q0 -74 -21.5 -158t-52.5 -133q-77 -116 -230 -116h-3q-119 0 -191 75q-41 45 -66.5 120t-25.5 147z" />
<glyph unicode="T" horiz-adv-x="464" d="M-18 1272v133h501v-133h-178v-1272h-147v1272h-176z" />
<glyph unicode="U" horiz-adv-x="720" d="M98 319v1086h146v-1098q0 -104 14 -129q33 -53 102 -53q72 0 103 53q14 25 14 129v1098h146v-1086q0 -152 -27 -206q-57 -123 -235.5 -123t-235.5 123q-27 55 -27 206z" />
<glyph unicode="V" horiz-adv-x="610" d="M14 1405h152l100 -733q29 -209 43 -371q18 203 43 363l105 741h139l-223 -1405h-137z" />
<glyph unicode="W" horiz-adv-x="937" d="M16 1405h152l76 -715q29 -281 32 -405q8 199 33 397l97 723h137l102 -715q27 -180 39 -405q16 301 27 405l73 715h138l-164 -1405h-127l-107 686q-27 180 -41 320q-10 94 -10 96q0 -98 -45 -404l-102 -698h-125z" />
<glyph unicode="X" horiz-adv-x="573" d="M-6 0l223 743l-190 662h155l111 -451l115 451h139l-193 -637l226 -768h-158l-143 567l-144 -567h-141z" />
<glyph unicode="Y" horiz-adv-x="573" d="M-16 1405h153l154 -635l155 635h144l-232 -809v-596h-147v596z" />
<glyph unicode="Z" horiz-adv-x="536" d="M10 0v150l352 1122h-335v133h489v-119l-362 -1153h372v-133h-516z" />
<glyph unicode="[" horiz-adv-x="436" d="M123 -266v1753h246v-121h-107v-1516h107v-116h-246z" />
<glyph unicode="\" horiz-adv-x="536" d="M-57 1405h104l457 -1757h-105z" />
<glyph unicode="]" horiz-adv-x="436" d="M68 -150h106v1516h-106v121h245v-1753h-245v116z" />
<glyph unicode="^" horiz-adv-x="1054" d="M61 780l379 629h174l379 -629h-147l-320 523l-319 -523h-146z" />
<glyph unicode="_" horiz-adv-x="1054" d="M0 -145h1055v-123h-1055v123z" />
<glyph unicode="`" horiz-adv-x="655" d="M121 1323l92 90l186 -203l-75 -61z" />
<glyph unicode="a" horiz-adv-x="614" d="M49 305q0 197 96 285q59 57 152 57q45 0 102 -16v35v45.5v42v33t-1 30.5t-3 24.5t-6 23.5t-8 20q-25 49 -76 49q-49 0 -80 -41q-28 -40 -28 -123v-6l-129 16q20 139 77 203q63 72 166 72q129 0 189 -105q30 -55 30 -253v-13v-504q1 -143 21 -180h-131q-14 39 -14 98 q-55 -112 -156 -112h-2q-78 0 -127 57q-72 80 -72 262zM180 291q0 -88 19 -127q23 -51 75 -51q57 0 95 67q30 56 30 150v180q-35 18 -90 18q-76 0 -106 -75q-23 -55 -23 -162z" />
<glyph unicode="b" horiz-adv-x="614" d="M78 0v1405h135v-451q23 37 47 60q37 35 86 35q72 0 119 -56q92 -106 92 -473q0 -346 -74 -454q-55 -80 -145 -80q-63 0 -105 39q-12 10 -47 59l-24 -84h-84zM213 424q0 -201 20 -256q25 -66 78 -66q80 0 92.5 125t12.5 271q0 274 -31 356q-25 70 -84 70q-41 0 -65 -41 q-23 -39 -23 -92v-367z" />
<glyph unicode="c" horiz-adv-x="540" d="M57 520q0 356 99 471q57 63 143 64q109 0 166 -86q45 -70 55 -242l-131 -10q0 102 -20 157q-20 59 -68 60q-55 0 -78 -80q-24 -87 -24 -317v-19q0 -248 26 -338q20 -78 84 -78q55 0 74 70q12 39 12 91q0 20 -2 42l127 -8q0 -152 -49 -227q-55 -90 -170 -90 q-111 0 -174 88q-70 104 -70 452z" />
<glyph unicode="d" horiz-adv-x="614" d="M57 508q0 262 45 383q53 153 170 153h2q55 0 97 -40q20 -18 30 -46v447h136v-1405h-123v98q-14 -35 -35 -61q-41 -51 -111 -51q-121 0 -168 141q-43 127 -43 381zM199 469q0 -150 14 -250q6 -33 12 -53.5t27.5 -42t54.5 -21.5q39 0 66.5 36.5t27.5 97.5v440 q0 154 -24 203q-23 41 -62 41q-72 0 -94 -107q-22 -96 -22 -324v-20z" />
<glyph unicode="e" horiz-adv-x="575" d="M57 520q0 362 103 471q61 63 147 64q111 0 170 -90q72 -102 72 -471h-352q0 -223 18 -304q20 -94 90 -94q55 0 84 60q21 42 25 112l121 -18q-16 -115 -58 -180q-57 -90 -172 -90q-106 0 -166 75q-82 109 -82 465zM197 612h221q0 172 -21 244q-27 82 -88 82q-57 0 -86 -74 q-26 -72 -26 -252z" />
<glyph unicode="f" horiz-adv-x="358" d="M25 913v127h88v142q0 127 37 182q43 63 126 63q59 0 95 -12v-115q-41 8 -58 9q-39 0 -61 -37q-14 -29 -14 -90v-142h106v-127h-100v-913h-138v913h-81z" />
<glyph unicode="g" horiz-adv-x="610" d="M41 -121q0 86 57 158q33 41 82 67q-45 20 -74 50q-43 43 -43 106q0 59 52 119q31 35 65 53q-43 35 -67 88q-31 72 -31 203q0 143 55 223q33 47 82 75t94 28q72 0 95 -27q0 51 16 82t54 50.5t79 19.5q6 0 17.5 -1.5t19.5 -1.5v-131q-8 0 -19.5 1t-19.5 1q-74 0 -74 -58 q0 -10 2 -21q76 -86 76 -261q0 -182 -76 -266q-62 -67 -152 -67h-3q-41 0 -84 14q-61 -29 -62 -74q0 -49 24.5 -67.5t80.5 -30.5q18 -4 57 -12.5t55.5 -11.5t43 -11t45 -16t34.5 -21q104 -70 105 -221q0 -143 -86 -225q-76 -76 -222 -76q-129 0 -206 78q-72 72 -72 184z M174 -98q0 -84 49 -127q45 -39 115 -39t115 41q41 37 41 119q0 102 -54 141q-43 35 -178 45q-88 -84 -88 -180zM211 698q0 -92 25 -145q28 -64 85.5 -64t84.5 56q26 51 26 158v8q0 123 -39 176q-27 39 -74 39q-53 0 -81 -54q-27 -47 -27 -174z" />
<glyph unicode="h" horiz-adv-x="616" d="M78 0v1405h135v-447q12 31 45 56q47 35 102 35q49 0 92.5 -22.5t63.5 -57.5q29 -45 29 -166v-803h-137l2 803q0 66 -23 94q-25 29 -65 29q-49 0 -82 -35q-27 -31 -27 -57v-834h-135z" />
<glyph unicode="i" horiz-adv-x="288" d="M78 0v1040h133v-1040h-133zM78 1223v178h133v-178h-133z" />
<glyph unicode="j" horiz-adv-x="288" d="M-39 -227q4 -2 21 -2q6 0 16 -1t14 -1q31 0 51 28q10 16 11 90v1153h137v-1153v-20.5v-23.5t-1 -23.5t-2 -25.5t-3 -23.5t-5 -25.5t-8.5 -22.5t-11.5 -21.5t-15 -18.5t-20 -16.5q-40 -26 -101 -26h-5q-37 0 -78 8v125zM74 1223v178h137v-178h-137z" />
<glyph unicode="k" horiz-adv-x="542" d="M78 0v1405h135v-819l197 454h131l-195 -407l217 -633h-145l-166 516l-39 -78v-438h-135z" />
<glyph unicode="l" horiz-adv-x="288" d="M78 0v1405h133v-1405h-133z" />
<glyph unicode="m" horiz-adv-x="901" d="M82 0v1034h119v-106q14 41 43 71q43 47 116 48q51 0 91 -33q35 -29 53 -76q14 47 53 76q43 33 100 33q78 0 121 -48q25 -25 37 -64.5t13 -65t1 -85.5v-784h-133v827q0 49 -28 74q-20 21 -58 21h-1q-37 0 -62 -27q-25 -25 -25 -61v-834h-133v821q0 55 -24 80 q-18 20 -58 21q-43 0 -67 -29q-25 -25 -25 -59v-834h-133z" />
<glyph unicode="n" horiz-adv-x="616" d="M78 0v1040h117v-106q20 47 55 78q49 43 121 43q70 0 118 -47q37 -37 46.5 -80t9.5 -113v-815h-135v815q0 68 -27 94q-20 20 -61 21q-49 0 -80 -33q-29 -29 -29 -59v-838h-135z" />
<glyph unicode="o" horiz-adv-x="610" d="M57 524q0 376 101 475q55 55 147 55q1 0 2 1q91 0 146 -56q100 -100 100 -479t-100 -479q-55 -55 -147.5 -55t-147.5 55q-101 101 -101 483zM199 520.5q0 -323.5 39 -381.5q27 -37 67.5 -37t67.5 37q39 57 39 381t-39 381q-27 37 -68 37t-67 -37q-39 -57 -39 -380.5z" />
<glyph unicode="p" horiz-adv-x="614" d="M78 -371v1411h123v-122q20 51 51 90q35 41 98 41q127 0 174 -183q33 -123 33 -350q0 -225 -35 -352q-49 -178 -180 -178q-49 0 -88 34q-29 29 -41 50v-441h-135zM213 203q0 -27 23 -60q29 -41 75 -41q74 0 92 136q12 94 13 264q0 199 -19 293q-25 129 -92 129 q-37 0 -61 -33q-31 -43 -31 -94v-594z" />
<glyph unicode="q" horiz-adv-x="614" d="M57 510q0 383 105 485q49 49 117 49q53 0 98 -30q35 -25 59 -66l33 84h68v-1403h-136v424q-48 -67 -127 -67h-2q-78 0 -127 59q-88 104 -88 465zM199 500q0 -270 24 -328q25 -70 78 -70q47 0 76 43q24 31 24 72v571q0 47 -20 84q-27 49 -72 50q-43 0 -69 -45 q-41 -76 -41 -377z" />
<glyph unicode="r" horiz-adv-x="395" d="M78 0v1040h121v-133q20 57 45 90q39 51 106 52q29 0 58 -9v-143q-14 0 -28.5 1t-23.5 1q-76 0 -112 -57q-33 -59 -33 -152v-690h-133z" />
<glyph unicode="s" horiz-adv-x="505" d="M16 240l125 22q0 -68 31 -115q25 -41 74 -41q57 0 82 58q18 43 18 112q0 88 -53 150q-20 25 -98 80q-59 45 -95 88q-69 89 -69 206q0 116 59 183q61 72 160 72q84 0 141 -54q33 -31 57 -85q22 -50 21 -90v-7l-119 -24q-8 76 -31 100q-25 31 -67.5 31t-67.5 -31 q-20 -25 -20 -72q0 -80 57 -143q23 -25 74 -62.5t84 -68.5q110 -103 110 -259q0 -144 -63.5 -224t-183.5 -80q-96 0 -154 59q-68 72 -72 195z" />
<glyph unicode="t" horiz-adv-x="395" d="M39 911v129h86v254l127 17v-271h106v-129h-102v-704q0 -51 10 -70q15 -28 61 -28h3q27 0 45 6v-123h-6q-12 0 -39 -2t-39 -2q-98 0 -139 57q-31 43 -31 170v696h-82z" />
<glyph unicode="u" horiz-adv-x="614" d="M72 250v790h135v-790q0 -80 18 -109q23 -35 68 -35q47 0 77.5 31t30.5 58v845h136v-1040h-119v104q-12 -37 -49 -73q-47 -45 -129 -45q-86 0 -131 65q-37 55 -37 199z" />
<glyph unicode="v" horiz-adv-x="499" d="M-6 1040h141l90 -583l13 -92q8 -43 10 -70q2 -14 4 -33.5t4 -34.5q2 12 4 32t4 34q0 2 2 16.5t8.5 52t14.5 91.5l94 587h123l-193 -1040h-120z" />
<glyph unicode="w" horiz-adv-x="753" d="M8 1040h131l64 -485q20 -162 30 -295q29 289 29 291l62 489h104l76 -489q37 -233 39 -291q12 160 26 281l60 499h116l-141 -1040h-110l-80 483l-13 74q-6 41 -14 123q-4 31 -10 74q-4 -43 -35 -271l-66 -483h-110z" />
<glyph unicode="x" horiz-adv-x="538" d="M16 0l183 547l-172 493h137l104 -346l105 346h119l-162 -481l192 -559h-135l-129 410l-121 -410h-121z" />
<glyph unicode="y" horiz-adv-x="536" d="M12 1040h140l73 -419q45 -254 51 -320q8 45 17 117q2 18 9 66t12 83t8 45l75 428h127l-205 -1122q-35 -195 -81 -244q-45 -45 -119 -45q-45 1 -72 13v116q27 2 32 -2t25 -4q55 0 72 60q6 18 21 112l20 131z" />
<glyph unicode="z" horiz-adv-x="432" d="M16 0v127l252 788h-229v125h377v-98l-266 -821h266v-121h-400z" />
<glyph unicode="{" horiz-adv-x="430" d="M70 547v127q51 0 69 51q8 23 8 92v449q0 109 19 151q35 74 141 74q10 0 31.5 -1t32.5 -1h4v-111q-55 0 -76 -28q-16 -23 -16 -90v-447q0 -92 -11 -133q-14 -41 -65 -74q45 -14 65 -69q10 -25 11 -119v-477q0 -53 12 -72q19 -31 80 -31v-108h-4q-10 0 -29.5 -2t-30.5 -2 q-92 0 -133 53q-31 39 -31 162v460q0 80 -20 115q-20 31 -57 31z" />
<glyph unicode="|" horiz-adv-x="1071" d="M469 -352v1757h133v-1757h-133z" />
<glyph unicode="}" horiz-adv-x="430" d="M55 -162q61 0 80 31q12 18 12 72v477q0 94 11 119q20 55 65 69q-51 33 -65 74q-10 41 -11 133v447q0 68 -16 90q-20 29 -76 28v111h4q10 0 32 1t32 1q106 0 141 -74q18 -43 19 -151v-449q0 -70 8 -92q18 -51 69 -51v-127q-37 0 -57 -31q-20 -35 -20 -115v-460 q0 -123 -31 -162q-41 -53 -133 -53q-10 0 -29.5 2t-30.5 2h-4v108z" />
<glyph unicode="~" horiz-adv-x="1413" d="M201 1286q51 106 104 160q74 76 182 76q66 0 160 -43l107 -47q129 -57 180 -58q68 0 125 53q23 20 71 99l82 -49q-43 -96 -98 -148q-86 -82 -194 -82q-78 0 -172 45l-125 60q-86 41 -148 41q-72 0 -123 -56q-8 -6 -71 -102z" />
<glyph unicode="&#xa3;" d="M10 0v135h121q39 39 53 74q29 76 29 211q0 84 -14 188q-2 29 -2 58h-131v122h118q-18 236 -18 246q0 203 59 291q70 98 189 98q96 0 157 -65q55 -61 74 -168l-131 -35q-4 70 -37 102q-25 25 -61 25q-49 0 -76 -47q-25 -45 -25 -197q0 -59 13 -170q4 -45 4 -80h162v-122 h-148q8 -137 8 -152q0 -178 -51 -287q-14 -33 -59 -92h78q90 0 129 21q70 39 69 135l137 -29q-8 -139 -100 -211q-68 -51 -219 -51h-328z" />
<glyph unicode="&#xa7;" horiz-adv-x="688" d="M109 59l120 27q0 -80 31 -131q25 -43 80 -43q57 0 84 47q20 37 20 107q0 117 -86 194q-27 25 -67.5 57.5t-71.5 63.5q-96 98 -96 244q0 68 27.5 139.5t78.5 107.5q-66 82 -87 130.5t-21 132.5q0 135 67 213q66 76 170 75q80 0 138 -61q63 -68 67 -178l-121 -29 q0 76 -34 117q-23 29 -66 28q-41 0 -67.5 -40.5t-26.5 -102.5q0 -53 19.5 -92t76.5 -88q18 -16 54 -44t61.5 -51.5t44.5 -47.5q76 -98 76 -252q0 -145 -93 -232q92 -86 93 -272q0 -119 -50 -191q-68 -96 -190 -96q-106 0 -168 80q-55 75 -63 188zM252 655q0 -74 41 -139 q34 -59 106 -104q20 25 33 61q12 47 12 102q0 76 -34 144q-35 66 -88 94q-29 -18 -48 -57q-23 -53 -22 -101z" />
<glyph unicode="&#xa8;" horiz-adv-x="651" d="M143 1176v163h133v-163h-133zM377 1176v163h133v-163h-133z" />
<glyph unicode="&#xa9;" horiz-adv-x="1351" d="M80 688q0 315 179 530.5t425 215.5q231 0 409.5 -206t178.5 -523q0 -326 -176 -530t-414 -204q-104 0 -209.5 47.5t-194 134.5t-143.5 227t-55 308zM203 694q0 -270 142 -439t333 -169q195 0 332 169t137 447q0 268 -142.5 445.5t-328.5 177.5q-182 0 -327.5 -173 t-145.5 -458zM481 698q0 293 72 379q49 57 133 58q94 0 141 -72q41 -59 41 -154l-116 -18q0 76 -25 115q-14 23 -41 22q-35 0 -50 -27.5t-20 -89.5q-10 -123 -10 -194q0 -74 12 -230q10 -113 70 -112q29 0 45 26q19 35 19 107l112 -21q-4 -96 -47 -155q-47 -61 -135 -62 q-96 0 -143 76q-57 90 -58 352z" />
<glyph unicode="&#xab;" horiz-adv-x="542" d="M18 549l144 291h100l-106 -291l106 -301h-100zM233 549l144 291h102l-108 -291l108 -301h-102z" />
<glyph unicode="&#xac;" horiz-adv-x="1054" d="M72 438v123h911v-561h-131v438h-780z" />
<glyph unicode="&#xad;" horiz-adv-x="436" d="M72 471v127h293v-127h-293z" />
<glyph unicode="&#xae;" horiz-adv-x="1351" d="M80 688q0 317 178 531.5t420 214.5q236 0 415 -207t179 -522q0 -326 -176 -530t-414 -204q-104 0 -209.5 47.5t-194 134.5t-143.5 227t-55 308zM203 694q0 -270 142 -439t333 -169q195 0 332 169t137 447q0 268 -141.5 445.5t-325.5 177.5q-186 0 -331.5 -173 t-145.5 -458zM504 281v843h153q104 0 150 -41q8 -6 20.5 -22.5t27.5 -66.5t15 -115q0 -119 -39 -172q-23 -29 -47 -41l105 -385h-125l-92 360h-49v-360h-119zM623 741h43q45 0 61 19q23 23 23 129q0 94 -25 119q-16 16 -63 16h-39v-283z" />
<glyph unicode="&#xb0;" d="M57 1133q0 117 84 204q86 86 201 86t201 -86q84 -88 84 -204q0 -119 -84 -207q-80 -84 -201 -84t-201 84q-84 88 -84 207zM172 1133q0 -84 49 -138q51 -55 121 -55t121 55q49 53 49 138q0 76 -49 133q-51 57 -121 57t-121 -57q-49 -57 -49 -133z" />
<glyph unicode="&#xb1;" d="M51 51v107h582v-107h-582zM51 649v107h238v379h106v-379h238v-107h-238v-377l-106 -2v379h-238z" />
<glyph unicode="&#xb4;" horiz-adv-x="655" d="M279 1210l186 203l92 -90l-203 -174z" />
<glyph unicode="&#xb6;" horiz-adv-x="720" d="M-14 1020q0 170 69 270q35 51 85 78t86 32t91 5h310v-1757h-109v1636h-94v-1636h-107v979q-96 -4 -157.5 21.5t-108.5 96.5q-66 102 -65 275z" />
<glyph unicode="&#xbb;" horiz-adv-x="542" d="M63 248l109 291l-109 301h103l141 -301l-141 -291h-103zM279 248l108 291l-108 301h102l143 -301l-143 -291h-102z" />
<glyph unicode="&#xf7;" d="M51 649v107h582v-107h-582zM279 330v196h127v-196h-127zM279 879v196h127v-196h-127z" />
<glyph unicode="&#x131;" horiz-adv-x="288" d="M78 0v1040h133v-1040h-133z" />
<glyph unicode="&#x192;" d="M-18 -297l14 125q12 0 28.5 -1t24.5 -1q63 0 90 39q20 35 39 207l80 745h-104l14 123h102l21 152q0 2 4 35.5t5 41t7 38t10.5 42t13.5 37t19 38.5t24.5 30.5t31.5 29.5q55 39 133 39q39 0 57 -6l-16 -125q-6 0 -14.5 1t-14.5 1q-49 0 -78 -37q-29 -35 -49 -186l-18 -131 h137l-15 -123h-139l-74 -725q-29 -276 -96 -344q-53 -53 -156 -53q-40 0 -81 8z" />
<glyph unicode="&#x2d9;" horiz-adv-x="655" d="M260 1174v178h133v-178h-133z" />
<glyph unicode="&#x401;" horiz-adv-x="614" d="M106 0v1403h459v-133h-309v-467h238v-137h-238v-533h326v-133h-476zM143 1556v191h150v-191h-150zM387 1556v191h150v-191h-150z" />
<glyph unicode="&#x402;" horiz-adv-x="802" d="M-18 1272v133h510v-133h-189v-500q61 61 148 62q137 0 208 -134q61 -115 62 -315q0 -154 -51 -268q-29 -68 -72 -100.5t-117 -32.5q-57 0 -96 16l21 143q31 -20 59 -20q63 0 92 80q27 80 27 188q0 119 -25 191q-39 113 -147 112q-70 0 -109 -69v-625h-145v1272h-176z" />
<glyph unicode="&#x403;" horiz-adv-x="544" d="M106 0v1405h482v-133h-336v-1272h-146zM236 1591l231 148l68 -111l-244 -117z" />
<glyph unicode="&#x404;" horiz-adv-x="677" d="M78 731q0 383 82 541q78 147 229 147q150 0 225 -127q52 -82 64 -225l-139 -27q-4 72 -25 134q-35 102 -117 102q-102 0 -131 -135q-31 -129 -30 -342h266v-140h-269q0 -211 17 -331q27 -205 153 -205q39 0 75 29.5t50 89.5q8 31 13 96l141 -31q4 -121 -57 -211 q-74 -115 -215 -114q-215 0 -287 249q-45 162 -45 500z" />
<glyph unicode="&#x405;" horiz-adv-x="612" d="M2 324l139 20q-4 -104 45 -170q41 -57 109 -57q70 0 111 76q33 61 32 153q0 162 -69 248q-27 33 -123 102.5t-144 141.5q-72 111 -71 247q0 143 61 232q72 102 209 102q119 0 186 -80q76 -88 80 -223l-137 -26q-4 96 -49 153q-31 41 -82 41q-55 0 -88 -37 q-35 -43 -35 -121q0 -121 66 -204q29 -37 104 -95q92 -61 135 -112q111 -129 111 -326q0 -74 -21.5 -158t-52.5 -133q-78 -117 -233 -116q-119 0 -191 75q-41 45 -66.5 120t-25.5 147z" />
<glyph unicode="&#x406;" horiz-adv-x="362" d="M106 0v1405h150v-1405h-150z" />
<glyph unicode="&#x407;" horiz-adv-x="362" d="M-47 1530v190h149v-190h-149zM106 0v1405h150v-1405h-150zM197 1530v190h149v-190h-149z" />
<glyph unicode="&#x408;" horiz-adv-x="432" d="M0 0v139h10q12 0 37 -2t39 -2q61 0 84 35q18 29 18 141v1094h150v-1061q0 -82 -2 -120t-19.5 -94t-52.5 -89q-57 -53 -155 -53q-66 0 -109 12z" />
<glyph unicode="&#x409;" horiz-adv-x="1120" d="M-29 0v139q68 -10 101 23q43 37 53 151q10 94 22 435q2 47 3.5 115.5t3.5 221t6 320.5h499v-580h113q131 0 203 -75q88 -92 88 -349q0 -221 -76 -311q-74 -90 -233 -90h-240v1272h-227q-4 -125 -6 -285t-9 -362q-6 -238 -20 -373q-12 -135 -62 -195q-55 -68 -149 -67 q-33 0 -70 10zM659 133h86q31 0 50.5 4t44 22.5t41.5 53.5q29 61 28 217q0 150 -37 205q-39 57 -122 57h-91v-559z" />
<glyph unicode="&#x40a;" horiz-adv-x="1107" d="M106 0v1405h146v-588h250v588h145v-588h113q131 0 203 -76q88 -92 88 -340q0 -221 -76 -311q-74 -90 -234 -90h-239v684h-250v-684h-146zM647 133h86q31 0 50.5 4t44 22.5t40.5 53.5q29 61 29 217q0 143 -37 197q-39 57 -123 57h-90v-551z" />
<glyph unicode="&#x40b;" horiz-adv-x="780" d="M-18 1272v133h505v-133h-184v-500q57 57 148 57q121 0 182 -94q49 -78 49 -303v-432h-145v389q0 176 -17 219q-31 78 -106 78q-63 0 -111 -61v-625h-145v1272h-176z" />
<glyph unicode="&#x40c;" horiz-adv-x="739" d="M106 0v1405h146v-610h65q82 0 111 43q20 35 31 182q2 31 4 110.5t8 116.5q10 78 47 123q41 47 109 47q25 0 69 -8v-131q-47 10 -69 -12q-18 -16 -25 -113l-14 -235q-12 -160 -115 -179v-6q104 -16 131 -139q6 -29 8 -60.5t5.5 -91t5.5 -102.5q10 -152 22 -172 q23 -39 86 -29v-131q-39 -16 -80 -16q-63 0 -102 41q-43 45 -53 137q-4 39 -7.5 79t-4.5 81t-3 61q-6 158 -28 203q-10 20 -25 33q-37 35 -109 35h-67v-662h-146zM279 1585l231 148l68 -111l-244 -117z" />
<glyph unicode="&#x40e;" horiz-adv-x="593" d="M-29 1405h162l193 -801l159 801h138l-209 -952q-68 -305 -103 -365q-59 -100 -190 -100q-41 0 -92 10v145q37 -8 67 -8q86 0 121 64q25 47 43 147zM111 1724h120q0 -39 11 -79q20 -68 71.5 -68t71.5 68q10 36 10 79h121q0 -115 -51 -184q-51 -72 -151.5 -72t-151.5 72 q-51 70 -51 184z" />
<glyph unicode="&#x40f;" horiz-adv-x="753" d="M106 0v1405h146v-1268h250v1268h145v-1405h-205v-307h-131v307h-205z" />
<glyph unicode="&#x410;" horiz-adv-x="610" d="M10 0l219 1405h146l225 -1405h-141l-64 416h-194l-62 -416h-129zM215 543h164l-47 350q-29 213 -37 324q-12 -184 -35 -326z" />
<glyph unicode="&#x411;" horiz-adv-x="679" d="M106 0v1405h476v-133h-330v-455h110q59 0 116 -33.5t89 -81.5q63 -90 64 -294q0 -217 -78 -312q-80 -96 -211 -96h-236zM252 133h70q86 0 129 76q35 59 34 190q0 150 -34 211q-39 74 -115 74h-84v-551z" />
<glyph unicode="&#x412;" d="M106 0v1405h152q168 0 244 -66q94 -82 94 -288q0 -143 -43 -217q-41 -66 -109 -86q72 -20 121 -82q70 -88 70 -267q0 -203 -88 -303q-33 -37 -70 -58.5t-87 -28.5t-69.5 -8t-74.5 -1h-140zM252 133h37q100 0 143 49q53 59 53 226q0 154 -53 219q-41 49 -123 49h-57v-543z M252 805h49q80 0 119 51q41 55 41 178q0 145 -49 195q-35 43 -111 43h-49v-467z" />
<glyph unicode="&#x413;" horiz-adv-x="544" d="M106 0v1405h482v-133h-336v-1272h-146z" />
<glyph unicode="&#x414;" horiz-adv-x="745" d="M-49 133h57q49 111 84 256q39 164 62 432q23 274 22 584h469v-1272h84v-461h-137v328h-504v-328h-137v461zM160 133h340v1139h-197q-8 -467 -47 -725q-37 -238 -96 -414z" />
<glyph unicode="&#x415;" horiz-adv-x="614" d="M106 0v1403h459v-133h-309v-467h238v-137h-238v-533h326v-133h-476z" />
<glyph unicode="&#x416;" horiz-adv-x="1015" d="M-2 8v131q63 -10 86 29q12 20 22 172q2 43 5.5 102.5t5.5 91t8 60.5q27 123 131 139v6q-102 18 -115 179l-14 235q-6 96 -25 113q-23 23 -69 12v131q45 8 69 8q68 0 109 -47q37 -45 47 -123q6 -37 8 -116.5t4 -110.5q10 -147 31 -182q29 -43 111 -43h24v610h142v-610h24 q82 0 111 43q20 35 30 182q2 31 4.5 110.5t8.5 116.5q10 78 47 123q41 47 108 47q25 0 70 -8v-131q-47 10 -70 -12q-18 -16 -24 -113l-15 -235q-12 -160 -114 -179v-6q104 -16 131 -139q4 -16 18 -254q10 -152 23 -172q23 -39 86 -29v-131q-39 -16 -80 -16q-63 0 -102 41 q-43 45 -54 137q-10 100 -16 221q0 14 -2 54t-4 58.5t-7.5 46.5t-14.5 45t-23 32q-37 35 -109 35h-26v-662h-142v662h-26q-72 0 -109 -35q-14 -14 -23.5 -31.5t-14.5 -45.5t-7 -46.5t-4 -58t-2 -54.5q-6 -121 -17 -221q-10 -92 -53 -137q-39 -41 -102 -41q-41 0 -80 16z" />
<glyph unicode="&#x417;" horiz-adv-x="673" d="M37 367l139 18q-4 -104 21 -174q31 -86 116 -86q80 0 119 82q35 72 35 207q0 143 -53 207q-45 53 -119 53h-68v133h68q86 0 125 82q23 45 22 180q0 115 -20 156q-31 68 -103 67q-57 0 -90 -57q-39 -66 -39 -178l-135 20q-2 166 92 273q70 78 179 77q121 0 192 -88 q74 -88 74 -260q0 -150 -33 -219q-39 -82 -131 -110v-5q76 -20 125 -86q63 -84 63 -249q0 -184 -61 -285q-84 -135 -246 -135q-139 0 -211 114q-65 105 -61 263z" />
<glyph unicode="&#x418;" horiz-adv-x="802" d="M106 0v1405h146v-879l-6 -135l51 182l254 756v76h145v-1405h-145v889l6 137l-49 -190l-256 -752v-84h-146z" />
<glyph unicode="&#x419;" horiz-adv-x="802" d="M106 0v1405h146v-879l-6 -135l51 182l254 756v76h145v-1405h-145v889l6 137l-49 -190l-256 -752v-84h-146zM158 1741h139q0 -39 12 -76q25 -72 94 -72q72 0 97 72q10 35 10 76h139q-4 -115 -63 -187q-66 -80 -182.5 -79.5t-182.5 79.5q-59 72 -63 187z" />
<glyph unicode="&#x41a;" horiz-adv-x="739" d="M106 0v1405h146v-610h65q82 0 111 43q20 35 31 182q2 31 4 110.5t8 116.5q10 78 47 123q41 47 109 47q25 0 69 -8v-131q-47 10 -69 -12q-18 -16 -25 -113l-14 -235q-12 -160 -115 -179v-6q104 -16 131 -139q6 -29 8 -60.5t5.5 -91t5.5 -102.5q10 -152 22 -172 q23 -39 86 -29v-131q-39 -16 -80 -16q-63 0 -102 41q-43 45 -53 137q-4 39 -7.5 79t-4.5 81t-3 61q-6 158 -28 203q-10 20 -25 33q-37 35 -109 35h-67v-662h-146z" />
<glyph unicode="&#x41b;" horiz-adv-x="765" d="M-29 0v139q68 -10 101 23q43 37 53 151q10 94 22 435q2 47 3.5 115.5t3.5 221t6 320.5h499v-1405h-145v1272h-227q-4 -125 -6 -285t-9 -362q-6 -238 -20 -373q-12 -135 -62 -195q-55 -68 -149 -67q-33 0 -70 10z" />
<glyph unicode="&#x41c;" horiz-adv-x="935" d="M98 0v1405h178l134 -731q33 -182 45 -297q16 -123 16 -129q6 109 61 418l127 739h179v-1405h-127v778q0 119 4 240q2 49 2 133q-10 -104 -58 -373l-133 -778h-127l-127 754q-41 231 -59 397q6 -129 6 -406v-745h-121z" />
<glyph unicode="&#x41d;" horiz-adv-x="753" d="M106 0v1405h146v-596h250v596h145v-1405h-145v676h-250v-676h-146z" />
<glyph unicode="&#x41e;" horiz-adv-x="761" d="M78 700.5q0 239.5 28 419.5q49 297 274.5 297t274.5 -297q29 -180 29 -419.5t-29 -419.5q-49 -297 -274 -297t-275 297q-28 180 -28 419.5zM236 702.5q0 -235.5 16 -389.5q22 -192 128.5 -192t129.5 192q18 143 18 389t-18 390q-23 193 -129.5 192.5t-128.5 -192.5 q-16 -154 -16 -389.5z" />
<glyph unicode="&#x41f;" horiz-adv-x="753" d="M106 0v1405h541v-1405h-145v1268h-250v-1268h-146z" />
<glyph unicode="&#x420;" horiz-adv-x="614" d="M106 0v1405h187q47 0 75.5 -3t71.5 -22.5t78 -58.5q92 -100 92 -346q0 -229 -86 -326q-74 -82 -200 -82h-68v-567h-150zM256 700h47q74 0 113 58q43 61 43 223q0 158 -39 223q-41 68 -113 68h-51v-572z" />
<glyph unicode="&#x421;" horiz-adv-x="647" d="M78 698q0 492 110 633q70 88 193 88q139 0 209 -110q57 -90 61 -242l-145 -23q0 127 -39 187q-31 45 -86 45q-72 0 -105 -80q-41 -100 -40 -496q0 -397 47 -499q37 -78 104 -78q57 0 88 49q35 51 33 172l135 -29q0 -147 -68 -239q-70 -94 -198 -94q-139 0 -211 118 q-88 147 -88 598z" />
<glyph unicode="&#x422;" horiz-adv-x="464" d="M-18 1272v133h501v-133h-178v-1272h-147v1272h-176z" />
<glyph unicode="&#x423;" horiz-adv-x="593" d="M-29 1405h162l193 -801l159 801h138l-209 -952q-68 -305 -103 -365q-59 -100 -190 -100q-41 0 -92 10v145q37 -8 67 -8q86 0 121 64q25 47 43 147z" />
<glyph unicode="&#x424;" horiz-adv-x="1026" d="M70 719q0 250 65 381q45 90 125 138t180 42v172h146v-172q219 0 305 -180q66 -133 65 -381q0 -256 -71 -379q-43 -74 -123 -118t-176 -44v-178h-146v178q-92 0 -173 42t-126 120q-72 125 -71 379zM223 723q0 -217 39 -295q53 -113 178 -113v830q-100 4 -157 -80 q-59 -88 -60 -342zM586 315q125 0 178 113q39 78 39 295q0 254 -60 342q-57 84 -157 80v-830z" />
<glyph unicode="&#x425;" horiz-adv-x="573" d="M-6 0l223 743l-190 662h155l111 -451l115 451h139l-193 -637l226 -768h-158l-143 567l-144 -567h-141z" />
<glyph unicode="&#x426;" horiz-adv-x="753" d="M106 0v1405h146v-1272h250v1272h145v-1268h90v-459h-141v322h-490z" />
<glyph unicode="&#x427;" horiz-adv-x="712" d="M66 840v565h145v-539q0 -92 20 -116q25 -31 91 -31q78 0 139 26v660h145v-1405h-145v621q-66 -35 -142 -35q-123 0 -190 71q-63 66 -63 183z" />
<glyph unicode="&#x428;" horiz-adv-x="1132" d="M106 0v1405h138v-1276h254v1276h137v-1276h254v1276h137v-1405h-920z" />
<glyph unicode="&#x429;" horiz-adv-x="1140" d="M106 0v1405h138v-1276h254v1276h137v-1276h254v1276h137v-1276h86v-451h-139v322h-867z" />
<glyph unicode="&#x42a;" horiz-adv-x="761" d="M-49 1272v133h350v-580h113q131 0 202 -75q88 -92 89 -349q0 -221 -76 -311q-74 -90 -234 -90h-239v1272h-205zM301 133h86q31 0 50.5 4t44 22.5t40.5 53.5q29 61 29 217q0 150 -37 205q-39 57 -123 57h-90v-559z" />
<glyph unicode="&#x42b;" horiz-adv-x="1005" d="M106 0v1405h138v-580h112q121 0 193 -75q90 -96 90 -344q0 -221 -76 -316q-72 -90 -225 -90h-232zM244 133h86q100 0 139 80q29 61 29 217q0 154 -37 205q-41 57 -127 57h-90v-559zM762 0v1405h137v-1405h-137z" />
<glyph unicode="&#x42c;" horiz-adv-x="712" d="M106 0v1405h146v-580h113q131 0 202 -75q88 -92 88 -349q0 -221 -75 -311q-74 -90 -234 -90h-240zM252 133h86q31 0 50.5 4t44 22.5t40.5 53.5q29 61 29 217q0 150 -37 205q-39 57 -123 57h-90v-559z" />
<glyph unicode="&#x42d;" horiz-adv-x="706" d="M37 348l145 17q0 -102 31 -170q35 -78 104 -78q90 0 123 110q35 117 35 432h-276v136h276q6 274 -45 405q-29 84 -104 84q-59 0 -97 -65q-39 -74 -43 -183l-145 23q8 145 68 244q70 115 219 114q143 0 215 -117q86 -137 86 -579q0 -451 -68 -590q-72 -147 -244 -147 q-141 0 -213 108q-67 102 -67 256z" />
<glyph unicode="&#x42e;" horiz-adv-x="1048" d="M106 0v1405h138v-596h137q0 190 20 315q43 293 275 293q225 0 270 -297q25 -162 25 -420t-25 -419q-43 -297 -270 -297q-223 0 -270 297q-25 147 -25 395h-137v-676h-138zM535 702.5q0 -268.5 12 -389.5q20 -198 129 -198q106 0 129 198q14 121 14 389.5t-14 389.5 q-23 193 -129 192q-49 0 -84 -48t-45 -144q-12 -121 -12 -389.5z" />
<glyph unicode="&#x42f;" horiz-adv-x="722" d="M16 0l177 659q-55 27 -95 89q-63 100 -63 262q0 221 94 317q78 78 205 78h252v-1405h-142v637h-114l-158 -637h-156zM180 1014q0 -139 33 -189q41 -66 133 -65h94v516h-106q-41 0 -75 -22.5t-50 -51.5q-29 -51 -29 -188z" />
<glyph unicode="&#x430;" horiz-adv-x="614" d="M49 305q0 197 96 285q59 57 152 57q45 0 102 -16v35v45.5v42v33t-1 30.5t-3 24.5t-6 23.5t-8 20q-25 49 -76 49q-49 0 -80 -41q-29 -41 -28 -129l-129 16q20 139 77 203q63 72 166 72q129 0 189 -105q31 -57 30 -266v-504q1 -143 21 -180h-131q-14 39 -14 98 q-55 -113 -158 -112q-78 0 -127 57q-72 80 -72 262zM180 291q0 -88 19 -127q23 -51 75 -51q57 0 95 67q30 56 30 150v180q-35 18 -90 18q-76 0 -106 -75q-23 -55 -23 -162z" />
<glyph unicode="&#x431;" horiz-adv-x="606" d="M57 555q0 170 17 440q4 61 8 89t17.5 81.5t41 92t72.5 71.5q45 35 145 70q41 14 85 25.5t89 25.5v-135q-25 -10 -92 -35q-78 -27 -135 -53q-61 -27 -90 -74q-49 -77 -49 -231h2q23 51 67 78.5t91 27.5q143 0 192 -162q31 -104 31 -354q0 -301 -53 -408 q-61 -119 -199 -118q-96 0 -156 75q-84 106 -84 494zM193 528q0 -197 18 -305q12 -68 41.5 -95.5t58.5 -27.5q14 0 29.5 8.5t34 40t24.5 82.5q14 100 15 281q0 209 -17 311q-20 115 -92 115q-12 0 -23.5 -5t-27.5 -18.5t-29.5 -45t-17.5 -76.5q-14 -139 -14 -265z" />
<glyph unicode="&#x432;" horiz-adv-x="610" d="M78 0v1040h254q90 0 147 -57q68 -63 68 -197q0 -88 -23 -137q-29 -63 -96 -96v-2q70 -31 102 -90q35 -61 35 -160q0 -156 -76 -235q-66 -66 -155 -66h-256zM209 117h88q68 0 98 35q35 37 35 149q0 104 -31 148q-31 41 -94 40h-96v-372zM209 606h90q59 0 90 45 q25 39 25 127q0 78 -29 113q-29 33 -82 33h-94v-318z" />
<glyph unicode="&#x433;" horiz-adv-x="446" d="M78 0v1040h397v-120h-262v-920h-135z" />
<glyph unicode="&#x434;" horiz-adv-x="643" d="M-29 121h60q61 150 88 330q33 211 37 589h409v-919h70v-383h-119v262h-426v-262h-119v383zM176 121h254v799h-154q-14 -319 -30 -449q-23 -194 -70 -350z" />
<glyph unicode="&#x435;" horiz-adv-x="575" d="M57 520q0 362 103 471q61 63 147 64q111 0 170 -90q72 -102 72 -471h-352q0 -223 18 -304q20 -94 90 -94q55 0 84 60q21 42 25 112l121 -18q-16 -115 -58 -180q-57 -90 -172 -90q-106 0 -166 75q-82 109 -82 465zM197 612h221q0 172 -21 244q-27 82 -88 82q-57 0 -86 -74 q-26 -72 -26 -252z" />
<glyph unicode="&#x436;" horiz-adv-x="815" d="M8 2v117q31 -10 49 20q10 18 17 105q12 156 14 176q12 104 88 129v2q-53 31 -70 102q-8 35 -16 156q-6 82 -20 102q-14 16 -35 13v116q41 8 51 9q80 0 100 -105q4 -29 13 -131q8 -82 14 -125q14 -80 72 -80h59v432h127v-432h59q57 0 72 80q6 43 14 125q8 102 13 131 q20 104 100 105q10 0 51 -9v-116q-20 4 -35 -13q-14 -20 -20 -102q-8 -121 -16 -156q-16 -72 -70 -102v-2q76 -25 88 -129q2 -20 14 -176q6 -86 17 -105q18 -31 49 -20v-117q-29 -14 -55 -14q-96 0 -119 114q-8 39 -21 220q-8 109 -24 133q-18 33 -58 32h-59v-487h-127v487 h-59q-39 0 -58 -32q-16 -25 -24 -133q-12 -180 -21 -220q-23 -115 -119 -114q-27 0 -55 14z" />
<glyph unicode="&#x437;" horiz-adv-x="530" d="M20 299l132 10q-4 -82 10 -135q16 -78 86 -78q59 0 84 62q18 41 18 145q0 106 -39 148q-33 35 -104 34h-45v123h49q72 0 100 35q27 31 27 135q0 80 -14 113q-23 47 -70 47q-61 0 -86 -70q-18 -51 -23 -133l-118 8q-2 63 17 133t52 109q57 70 158 70q104 0 162 -66 q57 -68 57 -196q0 -100 -29 -156q-35 -66 -106 -84v-2q66 -14 98 -59q49 -61 49 -195q0 -158 -53 -234q-57 -84 -190 -83q-131 0 -183 104q-39 78 -39 215z" />
<glyph unicode="&#x438;" horiz-adv-x="643" d="M78 0v1040h127v-653l-6 -113l32 115l207 580v71h127v-1040h-127v645l6 113l-32 -129l-207 -547v-82h-127z" />
<glyph unicode="&#x439;" horiz-adv-x="643" d="M78 0v1040h127v-653l-6 -113l32 115l207 580v71h127v-1040h-127v645l6 113l-32 -129l-207 -547v-82h-127zM109 1380h122q-8 -57 19 -94q23 -35 69 -35q41 0 62 35q18 33 22 94h123q4 -94 -45 -159q-53 -74 -166 -74q-106 0 -161 76q-49 68 -45 157z" />
<glyph unicode="&#x43a;" horiz-adv-x="589" d="M78 0v1040h135v-432h80q57 0 72 80q6 35 14 131t12 123q20 106 107 107l49 -9v-116q-20 4 -35 -13q-14 -20 -20 -102q-8 -121 -17 -156q-16 -74 -72 -102v-2q80 -29 91 -129q6 -47 9 -101.5t5 -74.5q6 -86 16 -105q18 -31 49 -20v-117q-29 -14 -59 -14q-96 0 -119 114 q-8 39 -20 220q-8 109 -25 133q-18 33 -57 32h-80v-487h-135z" />
<glyph unicode="&#x43b;" horiz-adv-x="614" d="M-8 0v119q90 -16 108 71q18 76 27 510q2 57 5 194.5t3 145.5h402v-1040h-136v918h-143q-6 -258 -6 -310q-6 -225 -10 -301q-8 -178 -49 -239q-49 -74 -136 -74q-10 0 -65 6z" />
<glyph unicode="&#x43c;" horiz-adv-x="806" d="M78 0v1040h184l144 -794l139 794h184v-1040h-123l2 899l-33 -219l-129 -680h-94l-135 678l-33 219l2 -897h-108z" />
<glyph unicode="&#x43d;" horiz-adv-x="630" d="M78 0v1040h135v-436h205v436h135v-1040h-135v483h-205v-483h-135z" />
<glyph unicode="&#x43e;" horiz-adv-x="610" d="M57.5 520q-0.5 379 100.5 479q55 55 147 55.5t148 -55.5q100 -100 100 -479t-100 -479q-55 -55 -147.5 -55t-147.5 55q-100 100 -100.5 479zM199 520.5q0 -323.5 39 -381.5q27 -37 67.5 -37t67.5 37q39 57 39 381t-39 381q-27 37 -68 37t-67 -37q-39 -57 -39 -380.5z" />
<glyph unicode="&#x43f;" horiz-adv-x="630" d="M78 0v1040h475v-1040h-135v920h-205v-920h-135z" />
<glyph unicode="&#x440;" horiz-adv-x="614" d="M78 -371v1411h123v-122q20 51 51 90q35 41 98 41q127 0 174 -183q33 -123 33 -350q0 -225 -35 -352q-49 -178 -180 -178q-49 0 -88 34q-29 29 -41 50v-441h-135zM213 203q0 -27 23 -60q29 -41 75 -41q74 0 92 136q12 94 13 264q0 199 -19 293q-25 129 -92 129 q-37 0 -61 -33q-31 -43 -31 -94v-594z" />
<glyph unicode="&#x441;" horiz-adv-x="540" d="M57 520q0 356 99 471q57 63 143 64q109 0 166 -86q45 -70 55 -242l-131 -10q0 102 -20 157q-20 59 -68 60q-55 0 -78 -80q-25 -90 -24 -336q0 -248 26 -338q20 -78 84 -78q55 0 74 70q16 53 10 133l127 -8q0 -152 -49 -227q-55 -90 -170 -90q-111 0 -174 88 q-70 104 -70 452z" />
<glyph unicode="&#x442;" horiz-adv-x="503" d="M16 920v120h471v-120h-168v-920h-135v920h-168z" />
<glyph unicode="&#x443;" horiz-adv-x="536" d="M12 1040h140l73 -419q45 -254 51 -320q8 45 17 117q2 18 9 66t12 83t8 45l75 428h127l-205 -1122q-35 -195 -81 -244q-45 -45 -119 -45q-45 1 -72 13v116q27 2 32 -2t25 -4q55 0 72 60q6 18 21 112l20 131z" />
<glyph unicode="&#x444;" horiz-adv-x="851" d="M49 520q0 313 88 430q80 111 225 115v340h127v-340q145 -4 226 -115q88 -117 88 -430q0 -293 -72 -409q-82 -133 -242 -131v-332h-127v332q-160 -2 -241 131q-72 117 -72 409zM190 528q0 -246 27 -313q37 -107 148 -111v838q-113 -14 -150 -135q-25 -86 -25 -279z M487 104q111 4 148 111q27 68 27 313q0 193 -25 279q-37 121 -150 135v-838z" />
<glyph unicode="&#x445;" horiz-adv-x="538" d="M16 0l183 547l-172 493h137l104 -346l105 346h119l-162 -481l192 -559h-135l-129 410l-121 -410h-121z" />
<glyph unicode="&#x446;" horiz-adv-x="632" d="M78 0v1040h135v-919h199v919h135v-919h78v-375h-119v254h-428z" />
<glyph unicode="&#x447;" horiz-adv-x="602" d="M57 651v389h136v-352q0 -90 14 -113q20 -33 72 -32q63 0 110 18v479h135v-1040h-135v449q-59 -27 -125 -27q-96 0 -149 53q-57 57 -58 176z" />
<glyph unicode="&#x448;" horiz-adv-x="913" d="M78 0v1040h119v-923h200v923h119v-923h201v923h119v-1040h-758z" />
<glyph unicode="&#x449;" horiz-adv-x="921" d="M78 0v1040h119v-923h200v923h119v-923h201v923h119v-923h77v-371h-122v254h-713z" />
<glyph unicode="&#x44a;" horiz-adv-x="671" d="M-37 920v120h318v-417h108q129 0 195 -82q55 -70 55 -222q0 -123 -35 -196q-57 -123 -217 -123h-242v920h-182zM281 121h71q84 0 119 51q27 37 27 133q0 119 -37 160q-33 37 -105 37h-75v-381z" />
<glyph unicode="&#x44b;" horiz-adv-x="845" d="M78 0v1040h127v-417h108q123 0 187 -82q55 -74 55 -222q0 -121 -35 -196q-55 -123 -209 -123h-233zM205 121h71q88 0 123 51q27 35 27 133q0 117 -37 160q-33 37 -108 37h-76v-381zM641 0v1040h127v-1040h-127z" />
<glyph unicode="&#x44c;" horiz-adv-x="604" d="M78 0v1040h135v-417h109q129 0 194 -82q55 -66 55 -222q0 -123 -34 -196q-57 -123 -218 -123h-241zM213 121h72q84 0 118 51q27 37 27 133q0 119 -37 160q-33 37 -104 37h-76v-381z" />
<glyph unicode="&#x44d;" horiz-adv-x="567" d="M29 305l127 8q-4 -92 14 -143q25 -68 84 -68q78 0 96 101q18 90 19 274h-197v121h197q0 133 -23 248q-6 27 -11 42t-24.5 30.5t-48.5 15.5q-45 0 -67 -49q-35 -70 -31 -166l-129 8q0 133 55 227q59 100 174 101q119 0 180 -113q66 -121 66 -434q0 -293 -51 -404 q-57 -125 -201 -124q-133 0 -186 102q-47 84 -43 223z" />
<glyph unicode="&#x44e;" horiz-adv-x="845" d="M78 0v1040h135v-436h98q0 301 95 395q55 55 143 55.5t143 -55.5q96 -96 96 -479t-96 -479q-55 -55 -143 -55q-86 0 -141 57q-104 113 -99 440h-96v-483h-135zM446 520.5q0 -319.5 39 -381.5q23 -37 64 -37t63 37q39 61 39 381t-39 381q-22 37 -63 37t-64 -37 q-39 -61 -39 -380.5z" />
<glyph unicode="&#x44f;" horiz-adv-x="661" d="M-8 0l166 477q-45 23 -74 62q-53 74 -53 204q0 170 84 242q61 55 174 55h246v-1040h-136v455h-112l-144 -455h-151zM168 741q0 -84 25 -120q35 -53 110 -54h96v353h-92q-70 0 -106 -46q-33 -43 -33 -133z" />
<glyph unicode="&#x451;" horiz-adv-x="575" d="M57 520q0 367 103 471q63 63 149 64q106 0 168 -90q72 -106 72 -471h-352q0 -223 18 -304q20 -94 90 -94q55 0 84 60q21 42 25 112l121 -18q-16 -115 -58 -180q-57 -90 -172 -90q-106 0 -166 75q-82 104 -82 465zM125 1233v164h133v-164h-133zM197 612h221q0 172 -21 244 q-27 82 -88 82q-57 0 -86 -74q-26 -72 -26 -252zM358 1233v164h134v-164h-134z" />
<glyph unicode="&#x452;" horiz-adv-x="669" d="M25 1151v117h106v137h135v-137h273v-117h-273v-270q12 63 54 106t106 43q90 0 135 -82q37 -70 37 -293v-585q0 -209 -41 -308q-51 -117 -147 -116q-43 0 -80 18v133q29 -16 59 -16q55 0 66 82q6 61 6 211v542q0 162 -12 220q-16 72 -72 71q-37 0 -62 -47 q-49 -84 -49 -332v-528h-135v1151h-106z" />
<glyph unicode="&#x453;" horiz-adv-x="446" d="M78 0v1040h397v-120h-262v-920h-135zM174 1210l186 203l93 -90l-203 -174z" />
<glyph unicode="&#x454;" horiz-adv-x="565" d="M57 506q0 293 66 424q63 125 188 125q127 0 185 -107q43 -80 47 -219l-123 -12q0 111 -23 162q-25 55 -78 55q-68 0 -94 -92q-31 -98 -30 -248h213v-117h-213q0 -186 28.5 -280.5t104.5 -94.5q61 0 82 74q10 41 10 135l125 -12q4 -137 -47 -227q-53 -92 -168 -92 q-131 0 -203 110q-70 115 -70 416z" />
<glyph unicode="&#x455;" horiz-adv-x="505" d="M16 240l125 22q0 -68 31 -115q25 -41 74 -41q57 0 82 58q18 43 18 112q0 88 -53 150q-20 25 -98 80q-59 45 -95 88q-70 90 -69 209q0 113 59 180q61 72 160 72q84 0 141 -54q33 -31 56.5 -85t21.5 -97l-119 -24q-8 76 -31 100q-25 31 -67.5 31t-67.5 -31q-20 -25 -20 -72 q0 -80 57 -143q23 -25 74 -62.5t84 -68.5q111 -104 110 -262q0 -141 -63.5 -221t-183.5 -80q-96 0 -154 59q-68 72 -72 195z" />
<glyph unicode="&#x456;" horiz-adv-x="288" d="M78 0v1040h133v-1040h-133zM78 1223v178h133v-178h-133z" />
<glyph unicode="&#x457;" horiz-adv-x="286" d="M-16 1223v178h125v-178h-125zM82 0v1040h133v-1040h-133zM178 1223v178h125v-178h-125z" />
<glyph unicode="&#x458;" horiz-adv-x="288" d="M-39 -227q4 -2 21 -2q6 0 16 -1t14 -1q31 0 51 28q10 16 11 90v1153h137v-1153v-20.5v-23.5t-1 -23.5t-2 -25.5t-3 -23.5t-5 -25.5t-8.5 -22.5t-11.5 -21.5t-15 -18.5t-20 -16.5q-41 -27 -106 -26q-37 0 -78 8v125zM74 1223v178h137v-178h-137z" />
<glyph unicode="&#x459;" horiz-adv-x="972" d="M-8 0v119q90 -16 108 71q18 76 27 510q2 57 5 194.5t3 145.5h402v-417h108q129 0 195 -82q55 -66 55 -222q0 -123 -35 -196q-57 -123 -217 -123h-242v918h-143q-6 -258 -6 -310q-6 -225 -10 -301q-8 -178 -49 -239q-49 -74 -136 -74q-10 0 -65 6zM537 121h71q84 0 119 51 q27 37 27 133q0 119 -37 160q-33 37 -105 37h-75v-381z" />
<glyph unicode="&#x45a;" horiz-adv-x="989" d="M78 0v1040h135v-428h205v428h135v-428h109q129 0 194 -82q55 -68 55 -223q0 -106 -34 -184q-57 -123 -218 -123h-241v492h-205v-492h-135zM553 121h72q84 0 118 51q27 37 27 131q0 111 -37 152q-33 37 -104 37h-76v-371z" />
<glyph unicode="&#x45b;" horiz-adv-x="667" d="M25 1151v117h104v137h135v-137h271v-117h-271v-268q8 43 45 90q47 57 115 57q92 0 135 -82q37 -70 37 -342v-606h-137v606q0 209 -19 252q-18 49 -61 49q-49 0 -80 -76q-35 -104 -35 -286v-545h-135v1151h-104z" />
<glyph unicode="&#x45c;" horiz-adv-x="589" d="M78 0v1040h135v-432h80q57 0 72 80q6 35 14 131t12 123q20 106 107 107l49 -9v-116q-20 4 -35 -13q-14 -20 -20 -102q-8 -121 -17 -156q-16 -74 -72 -102v-2q80 -29 91 -129q6 -47 9 -101.5t5 -74.5q6 -86 16 -105q18 -31 49 -20v-117q-29 -14 -59 -14q-96 0 -119 114 q-8 39 -20 220q-8 109 -25 133q-18 33 -57 32h-80v-487h-135zM205 1212l186 203l92 -90l-202 -174z" />
<glyph unicode="&#x45e;" horiz-adv-x="536" d="M12 1040h140l73 -419q45 -254 51 -320q8 45 17 117q2 18 9 66t12 83t8 45l75 428h127l-205 -1122q-35 -195 -81 -244q-45 -45 -119 -45q-45 1 -72 13v116q27 2 32 -2t25 -4q55 0 72 60q6 18 21 112l20 131zM78 1380h119q-4 -63 14 -94q18 -35 59 -35q37 0 54 35 q16 33 16 94h119q0 -100 -41 -159q-49 -74 -152 -74q-98 0 -147 76q-41 63 -41 157z" />
<glyph unicode="&#x45f;" horiz-adv-x="624" d="M78 0v1040h135v-919h199v919h135v-1040h-174v-287h-121v287h-174z" />
<glyph unicode="&#x490;" horiz-adv-x="546" d="M106 0v1405h351v242h133v-375h-338v-1272h-146z" />
<glyph unicode="&#x491;" horiz-adv-x="448" d="M78 0v1040h270v250h129v-370h-264v-920h-135z" />
<glyph unicode="&#x2000;" horiz-adv-x="873" />
<glyph unicode="&#x2001;" horiz-adv-x="1747" />
<glyph unicode="&#x2002;" horiz-adv-x="873" />
<glyph unicode="&#x2003;" horiz-adv-x="1747" />
<glyph unicode="&#x2004;" horiz-adv-x="582" />
<glyph unicode="&#x2005;" horiz-adv-x="436" />
<glyph unicode="&#x2006;" horiz-adv-x="291" />
<glyph unicode="&#x2007;" horiz-adv-x="291" />
<glyph unicode="&#x2008;" horiz-adv-x="218" />
<glyph unicode="&#x2009;" horiz-adv-x="349" />
<glyph unicode="&#x200a;" horiz-adv-x="97" />
<glyph unicode="&#x2010;" horiz-adv-x="436" d="M72 471v127h293v-127h-293z" />
<glyph unicode="&#x2011;" horiz-adv-x="436" d="M72 471v127h293v-127h-293z" />
<glyph unicode="&#x2012;" horiz-adv-x="436" d="M72 471v127h293v-127h-293z" />
<glyph unicode="&#x2013;" horiz-adv-x="614" d="M70 463v123h475v-121z" />
<glyph unicode="&#x2014;" horiz-adv-x="935" d="M80 463v123h776v-121z" />
<glyph unicode="&#x2018;" horiz-adv-x="364" d="M102 954v201l86 258h74l-65 -246h65v-213h-160z" />
<glyph unicode="&#x2019;" horiz-adv-x="253" d="M47 950l66 242h-66v213h160v-201l-88 -254h-72z" />
<glyph unicode="&#x201c;" horiz-adv-x="616" d="M102 950v201l86 254h74l-65 -244h65v-211h-160zM354 950v201l88 254h72l-65 -244h65v-211h-160z" />
<glyph unicode="&#x201d;" horiz-adv-x="616" d="M102 950l64 242h-64v213h160v-201l-88 -254h-72zM354 950l66 242h-66v213h160v-201l-88 -254h-72z" />
<glyph unicode="&#x201e;" horiz-adv-x="616" d="M102 0v213h160v-201l-88 -256h-72l64 244h-64zM354 0v213h160v-201l-88 -256h-72l66 244h-66z" />
<glyph unicode="&#x2020;" horiz-adv-x="688" d="M98 854v119h183v432h127v-432h182v-119h-182v-1073h-127v1073h-183z" />
<glyph unicode="&#x2022;" horiz-adv-x="1421" d="M422 717q0 123 86 209t204.5 86t202.5 -86t84 -209q0 -137 -91 -216t-195 -79q-119 0 -205 87t-86 208z" />
<glyph unicode="&#x2026;" horiz-adv-x="1949" d="M250 0v217h158v-217h-158zM897 0v217h156v-217h-156zM1542 0v217h158v-217h-158z" />
<glyph unicode="&#x202f;" horiz-adv-x="349" />
<glyph unicode="&#x205f;" horiz-adv-x="436" />
<glyph unicode="&#x20ac;" horiz-adv-x="688" d="M37 512l33 123h65v162h-98l33 123h69q-4 100 17.5 210.5t62.5 178.5q41 66 89 90t118 24q86 0 172 -34q47 -18 94 -60l-41 -145q-37 41 -86 69q-66 35 -127 35q-121 0 -141 -190q-10 -92 -10 -178h286l-32 -123h-258v-162h211l-37 -123h-172q0 -53 10 -182q4 -45 9 -74 t19.5 -65.5t44 -56t74.5 -19.5q33 0 78 18q91 35 152 129v-182q-39 -43 -86 -64q-80 -35 -148 -34q-158 0 -229 133q-68 121 -68 397h-104z" />
<glyph unicode="&#x2122;" horiz-adv-x="825" d="M-10 1274v88h301v-88h-101v-713h-98v713h-102zM334 561v801h115l75 -414q20 -123 31 -258q27 205 35 254l72 418h114v-801h-86v445q0 41 3 85t1 74q-2 -16 -5 -33.5t-3 -25.5q-4 -27 -7 -56.5t-5 -45.5l-78 -443h-86l-76 428q-6 29 -10 82q0 10 -12 94q0 -16 1 -43.5 t3 -44.5q2 -55 2 -90v-426h-84z" />
<glyph unicode="&#x221a;" horiz-adv-x="1404" d="M0 641v123h281l84 -287q47 -172 65 -287h10q49 215 79 332t69 244t49 164l233 817h535v-125h-420l-471 -1622h-162l-182 641h-170z" />
<glyph unicode="&#x221e;" horiz-adv-x="1404" d="M41 719q0 154 93 237.5t218 83.5q139 0 258 -118q39 -39 90 -113q41 61 80 102q119 127 273 127q129 0 220 -86t91 -235q0 -154 -91 -237t-216 -83q-152 0 -271 125q-26 29 -81 105q-55 -76 -97 -117q-115 -111 -254 -111t-226 88t-87 232zM172 715q0 -88 55.5 -145.5 t137.5 -57.5q111 0 208 119q31 39 62 86q-20 41 -68 96q-100 111 -205 111q-80 0 -135 -58.5t-55 -150.5zM768 719q31 -51 72 -96q96 -111 198 -111q84 0 139.5 58.5t55.5 150.5q0 86 -56.5 144.5t-138.5 58.5q-113 0 -207 -119q-14 -18 -43 -60z" />
<glyph unicode="&#x2248;" d="M33 514q27 70 69 113q51 51 119 51q37 0 82 -21l59 -26q70 -33 105 -33q41 0 65 33q8 12 35 57l84 -51q-29 -66 -65 -102q-53 -53 -135 -54q-47 0 -97 25l-67 33q-45 23 -68 22q-37 0 -67 -39q-21 -28 -37 -59zM33 768q27 70 69 113q51 51 119 51q37 0 82 -21l59 -26 q70 -33 105 -33q41 0 65 33q8 12 35 57l84 -51q-29 -66 -65 -103q-53 -53 -135 -53q-47 0 -97 25l-67 33q-45 23 -68 22q-37 0 -67 -39q-21 -28 -37 -59z" />
<glyph unicode="&#x2260;" d="M51 522v117h203l57 127h-260v117h316l104 221l96 -47l-82 -174h148v-117h-203l-57 -127h260v-117h-316l-104 -221l-96 47l82 174h-148z" />
<glyph unicode="&#x2264;" d="M29 141v125l626 2v-127h-626zM29 700v117l626 375v-133l-512 -301l512 -301v-131z" />
<glyph unicode="&#x2265;" d="M29 141v125l626 2v-127h-626zM29 326v131l512 301l-512 301v133l626 -375v-117z" />
<glyph unicode="&#x25fc;" horiz-adv-x="1044" d="M0 0v1044h1044v-1044h-1044z" />
</font>
</defs>
</svg>
